{"glyphs":{"0":{"ha":914,"x_min":76,"x_max":838,"o":"m 686 0 l 228 0 l 76 151 l 76 821 l 228 972 l 686 972 l 838 821 l 838 151 l 686 0 m 346 722 l 346 250 l 568 250 l 568 722 l 346 722 z "},"1":{"ha":651,"x_min":49,"x_max":617,"o":"m 617 0 l 56 0 l 56 236 l 208 236 l 208 694 l 49 694 l 49 825 l 278 972 l 478 972 l 478 236 l 617 236 l 617 0 z "},"2":{"ha":886,"x_min":76,"x_max":810,"o":"m 810 0 l 76 0 l 76 403 l 228 554 l 535 554 l 535 743 l 351 743 l 351 638 l 82 638 l 82 821 l 233 972 l 653 972 l 804 821 l 804 483 l 653 332 l 346 332 l 346 229 l 810 229 l 810 0 z "},"3":{"ha":878,"x_min":56,"x_max":801,"o":"m 793 821 l 793 592 l 696 494 l 801 389 l 801 151 l 650 0 l 207 0 l 56 151 l 56 300 l 325 300 l 325 222 l 532 222 l 532 363 l 501 393 l 296 393 l 296 588 l 493 588 l 524 618 l 524 750 l 325 750 l 325 672 l 56 672 l 56 821 l 207 972 l 642 972 l 793 821 z "},"4":{"ha":889,"x_min":28,"x_max":861,"o":"m 464 168 l 28 168 l 28 376 l 290 832 l 290 972 l 568 972 l 568 807 l 317 376 l 469 376 l 469 564 l 733 564 l 733 376 l 861 376 l 861 168 l 733 168 l 733 0 l 464 0 l 464 168 z "},"5":{"ha":875,"x_min":76,"x_max":799,"o":"m 76 569 l 76 972 l 785 972 l 785 743 l 346 743 l 346 640 l 647 640 l 799 489 l 799 151 l 647 0 l 228 0 l 76 151 l 76 335 l 346 335 l 346 229 l 529 229 l 529 418 l 228 418 l 76 569 z "},"6":{"ha":886,"x_min":76,"x_max":810,"o":"m 658 0 l 228 0 l 76 151 l 76 821 l 228 972 l 644 972 l 796 821 l 796 675 l 526 675 l 526 750 l 346 750 l 346 596 l 658 596 l 810 444 l 810 151 l 658 0 m 346 388 l 346 222 l 540 222 l 540 388 l 346 388 z "},"7":{"ha":821,"x_min":42,"x_max":779,"o":"m 529 0 l 251 0 l 251 235 l 510 706 l 510 736 l 311 736 l 311 631 l 42 631 l 42 821 l 193 972 l 779 972 l 779 660 l 529 204 l 529 0 z "},"8":{"ha":917,"x_min":76,"x_max":840,"o":"m 832 821 l 832 592 l 735 494 l 840 389 l 840 151 l 689 0 l 228 0 l 76 151 l 76 389 l 182 494 l 85 592 l 85 821 l 236 972 l 681 972 l 832 821 m 563 614 l 563 750 l 354 750 l 354 614 l 385 583 l 532 583 l 563 614 m 540 389 l 376 389 l 346 358 l 346 222 l 571 222 l 571 358 l 540 389 z "},"9":{"ha":886,"x_min":76,"x_max":810,"o":"m 658 0 l 242 0 l 90 151 l 90 297 l 360 297 l 360 222 l 540 222 l 540 376 l 228 376 l 76 528 l 76 821 l 228 972 l 658 972 l 810 821 l 810 151 l 658 0 m 346 750 l 346 585 l 540 585 l 540 750 l 346 750 z "},"A":{"ha":931,"x_min":28,"x_max":903,"o":"m 306 0 l 28 0 l 28 189 l 272 972 l 658 972 l 903 190 l 903 0 l 625 0 l 625 158 l 617 192 l 314 192 l 306 158 l 306 0 m 465 753 l 363 414 l 568 414 l 465 753 z "},"Á":{"ha":931,"x_min":28,"x_max":903,"o":"m 306 0 l 28 0 l 28 189 l 272 972 l 658 972 l 903 190 l 903 0 l 625 0 l 625 158 l 617 192 l 314 192 l 306 158 l 306 0 m 465 753 l 363 414 l 568 414 l 465 753 m 688 1276 l 688 1183 l 479 1051 l 313 1051 l 403 1197 l 403 1276 l 688 1276 z "},"Ă":{"ha":931,"x_min":28,"x_max":903,"o":"m 306 0 l 28 0 l 28 189 l 272 972 l 658 972 l 903 190 l 903 0 l 625 0 l 625 158 l 617 192 l 314 192 l 306 158 l 306 0 m 465 753 l 363 414 l 568 414 l 465 753 m 225 1274 l 396 1274 l 396 1203 l 535 1203 l 535 1274 l 706 1274 l 706 1140 l 621 1056 l 310 1056 l 225 1140 l 225 1274 z "},"Â":{"ha":931,"x_min":28,"x_max":903,"o":"m 306 0 l 28 0 l 28 189 l 272 972 l 658 972 l 903 190 l 903 0 l 625 0 l 625 158 l 617 192 l 314 192 l 306 158 l 306 0 m 465 753 l 363 414 l 568 414 l 465 753 m 440 1107 l 235 1018 l 235 1115 l 415 1296 l 515 1296 l 696 1115 l 696 1018 l 490 1107 l 440 1107 z "},"Ä":{"ha":931,"x_min":28,"x_max":903,"o":"m 306 0 l 28 0 l 28 189 l 272 972 l 658 972 l 903 190 l 903 0 l 625 0 l 625 158 l 617 192 l 314 192 l 306 158 l 306 0 m 465 753 l 363 414 l 568 414 l 465 753 m 194 1263 l 417 1263 l 417 1056 l 194 1056 l 194 1263 m 514 1263 l 736 1263 l 736 1056 l 514 1056 l 514 1263 z "},"À":{"ha":931,"x_min":28,"x_max":903,"o":"m 306 0 l 28 0 l 28 189 l 272 972 l 658 972 l 903 190 l 903 0 l 625 0 l 625 158 l 617 192 l 314 192 l 306 158 l 306 0 m 465 753 l 363 414 l 568 414 l 465 753 m 451 1051 l 243 1183 l 243 1276 l 528 1276 l 528 1197 l 618 1051 l 451 1051 z "},"Ā":{"ha":931,"x_min":28,"x_max":903,"o":"m 306 0 l 28 0 l 28 189 l 272 972 l 658 972 l 903 190 l 903 0 l 625 0 l 625 158 l 617 192 l 314 192 l 306 158 l 306 0 m 465 753 l 363 414 l 568 414 l 465 753 m 251 1081 l 251 1242 l 679 1242 l 679 1081 l 251 1081 z "},"Ą":{"ha":931,"x_min":28,"x_max":903,"o":"m 306 0 l 28 0 l 28 189 l 272 972 l 658 972 l 903 190 l 903 0 l 625 0 l 625 158 l 617 192 l 314 192 l 306 158 l 306 0 m 465 753 l 363 414 l 568 414 l 465 753 m 768 0 l 903 0 l 817 -86 l 817 -158 l 903 -158 l 903 -332 l 721 -332 l 650 -261 l 650 -118 l 768 0 z "},"Å":{"ha":931,"x_min":28,"x_max":903,"o":"m 306 0 l 28 0 l 28 189 l 272 972 l 658 972 l 903 190 l 903 0 l 625 0 l 625 158 l 617 192 l 314 192 l 306 158 l 306 0 m 465 753 l 363 414 l 568 414 l 465 753 m 329 1367 l 601 1367 l 686 1282 l 686 1140 l 601 1056 l 329 1056 l 244 1140 l 244 1282 l 329 1367 m 533 1161 l 533 1261 l 397 1261 l 397 1161 l 533 1161 z "},"Ã":{"ha":931,"x_min":28,"x_max":903,"o":"m 306 0 l 28 0 l 28 189 l 272 972 l 658 972 l 903 190 l 903 0 l 625 0 l 625 158 l 617 192 l 314 192 l 306 158 l 306 0 m 465 753 l 363 414 l 568 414 l 465 753 m 375 1056 l 219 1056 l 219 1210 l 290 1281 l 447 1281 l 533 1194 l 556 1194 l 556 1281 l 711 1281 l 711 1126 l 640 1056 l 483 1056 l 397 1142 l 375 1142 l 375 1056 z "},"Æ":{"ha":1311,"x_min":28,"x_max":1256,"o":"m 306 0 l 28 0 l 28 189 l 383 972 l 1247 972 l 1247 722 l 858 722 l 858 588 l 1144 588 l 1144 379 l 858 379 l 858 250 l 1256 250 l 1256 0 l 589 0 l 589 192 l 314 192 l 306 158 l 306 0 m 553 725 l 413 414 l 589 414 l 589 725 l 553 725 z "},"B":{"ha":958,"x_min":111,"x_max":889,"o":"m 738 0 l 111 0 l 111 972 l 729 972 l 881 821 l 881 588 l 783 490 l 889 385 l 889 151 l 738 0 m 603 614 l 603 750 l 389 750 l 389 583 l 572 583 l 603 614 m 611 358 l 581 389 l 389 389 l 389 222 l 611 222 l 611 358 z "},"C":{"ha":925,"x_min":76,"x_max":863,"o":"m 711 0 l 228 0 l 76 151 l 76 821 l 228 972 l 711 972 l 863 821 l 863 589 l 585 589 l 585 722 l 354 722 l 354 250 l 585 250 l 585 383 l 863 383 l 863 151 l 711 0 z "},"Ć":{"ha":925,"x_min":76,"x_max":863,"o":"m 711 0 l 228 0 l 76 151 l 76 821 l 228 972 l 711 972 l 863 821 l 863 589 l 585 589 l 585 722 l 354 722 l 354 250 l 585 250 l 585 383 l 863 383 l 863 151 l 711 0 m 692 1276 l 692 1183 l 483 1051 l 317 1051 l 407 1197 l 407 1276 l 692 1276 z "},"Č":{"ha":925,"x_min":76,"x_max":863,"o":"m 711 0 l 228 0 l 76 151 l 76 821 l 228 972 l 711 972 l 863 821 l 863 589 l 585 589 l 585 722 l 354 722 l 354 250 l 585 250 l 585 383 l 863 383 l 863 151 l 711 0 m 700 1213 l 519 1032 l 419 1032 l 239 1213 l 239 1310 l 444 1221 l 494 1221 l 700 1310 l 700 1213 z "},"Ç":{"ha":925,"x_min":76,"x_max":863,"o":"m 711 0 l 228 0 l 76 151 l 76 821 l 228 972 l 711 972 l 863 821 l 863 589 l 585 589 l 585 722 l 354 722 l 354 250 l 585 250 l 585 383 l 863 383 l 863 151 l 711 0 m 594 -244 l 524 -315 l 328 -315 l 328 -278 l 414 -192 l 414 -160 l 342 -87 l 488 58 l 599 58 l 496 -44 l 594 -143 l 594 -244 z "},"Ċ":{"ha":925,"x_min":76,"x_max":863,"o":"m 711 0 l 228 0 l 76 151 l 76 821 l 228 972 l 711 972 l 863 821 l 863 589 l 585 589 l 585 722 l 354 722 l 354 250 l 585 250 l 585 383 l 863 383 l 863 151 l 711 0 m 351 1276 l 588 1276 l 588 1056 l 351 1056 l 351 1276 z "},"D":{"ha":982,"x_min":111,"x_max":906,"o":"m 721 0 l 111 0 l 111 972 l 721 972 l 906 788 l 906 185 l 721 0 m 389 722 l 389 250 l 597 250 l 628 281 l 628 692 l 597 722 l 389 722 z "},"Ð":{"ha":1081,"x_min":111,"x_max":1004,"o":"m 819 0 l 210 0 l 210 394 l 111 394 l 111 589 l 210 589 l 210 972 l 819 972 l 1004 788 l 1004 185 l 819 0 m 488 394 l 488 250 l 696 250 l 726 281 l 726 692 l 696 722 l 488 722 l 488 589 l 638 589 l 638 394 l 488 394 z "},"Ď":{"ha":982,"x_min":111,"x_max":906,"o":"m 721 0 l 111 0 l 111 972 l 721 972 l 906 788 l 906 185 l 721 0 m 389 722 l 389 250 l 597 250 l 628 281 l 628 692 l 597 722 l 389 722 m 739 1213 l 558 1032 l 458 1032 l 278 1213 l 278 1310 l 483 1221 l 533 1221 l 739 1310 l 739 1213 z "},"Đ":{"ha":1081,"x_min":111,"x_max":1004,"o":"m 819 0 l 210 0 l 210 394 l 111 394 l 111 589 l 210 589 l 210 972 l 819 972 l 1004 788 l 1004 185 l 819 0 m 488 394 l 488 250 l 696 250 l 726 281 l 726 692 l 696 722 l 488 722 l 488 589 l 638 589 l 638 394 l 488 394 z "},"E":{"ha":847,"x_min":111,"x_max":792,"o":"m 792 0 l 111 0 l 111 972 l 783 972 l 783 722 l 389 722 l 389 588 l 681 588 l 681 379 l 389 379 l 389 250 l 792 250 l 792 0 z "},"É":{"ha":847,"x_min":111,"x_max":792,"o":"m 792 0 l 111 0 l 111 972 l 783 972 l 783 722 l 389 722 l 389 588 l 681 588 l 681 379 l 389 379 l 389 250 l 792 250 l 792 0 m 674 1276 l 674 1183 l 465 1051 l 299 1051 l 389 1197 l 389 1276 l 674 1276 z "},"Ě":{"ha":847,"x_min":111,"x_max":792,"o":"m 792 0 l 111 0 l 111 972 l 783 972 l 783 722 l 389 722 l 389 588 l 681 588 l 681 379 l 389 379 l 389 250 l 792 250 l 792 0 m 682 1213 l 501 1032 l 401 1032 l 221 1213 l 221 1310 l 426 1221 l 476 1221 l 682 1310 l 682 1213 z "},"Ê":{"ha":847,"x_min":111,"x_max":792,"o":"m 792 0 l 111 0 l 111 972 l 783 972 l 783 722 l 389 722 l 389 588 l 681 588 l 681 379 l 389 379 l 389 250 l 792 250 l 792 0 m 426 1107 l 221 1018 l 221 1115 l 401 1296 l 501 1296 l 682 1115 l 682 1018 l 476 1107 l 426 1107 z "},"Ë":{"ha":847,"x_min":111,"x_max":792,"o":"m 792 0 l 111 0 l 111 972 l 783 972 l 783 722 l 389 722 l 389 588 l 681 588 l 681 379 l 389 379 l 389 250 l 792 250 l 792 0 m 181 1263 l 403 1263 l 403 1056 l 181 1056 l 181 1263 m 500 1263 l 722 1263 l 722 1056 l 500 1056 l 500 1263 z "},"Ė":{"ha":847,"x_min":111,"x_max":792,"o":"m 792 0 l 111 0 l 111 972 l 783 972 l 783 722 l 389 722 l 389 588 l 681 588 l 681 379 l 389 379 l 389 250 l 792 250 l 792 0 m 333 1276 l 569 1276 l 569 1056 l 333 1056 l 333 1276 z "},"È":{"ha":847,"x_min":111,"x_max":792,"o":"m 792 0 l 111 0 l 111 972 l 783 972 l 783 722 l 389 722 l 389 588 l 681 588 l 681 379 l 389 379 l 389 250 l 792 250 l 792 0 m 438 1051 l 229 1183 l 229 1276 l 514 1276 l 514 1197 l 604 1051 l 438 1051 z "},"Ē":{"ha":847,"x_min":111,"x_max":792,"o":"m 792 0 l 111 0 l 111 972 l 783 972 l 783 722 l 389 722 l 389 588 l 681 588 l 681 379 l 389 379 l 389 250 l 792 250 l 792 0 m 238 1081 l 238 1242 l 665 1242 l 665 1081 l 238 1081 z "},"Ę":{"ha":847,"x_min":111,"x_max":792,"o":"m 792 0 l 111 0 l 111 972 l 783 972 l 783 722 l 389 722 l 389 588 l 681 588 l 681 379 l 389 379 l 389 250 l 792 250 l 792 0 m 657 0 l 792 0 l 706 -86 l 706 -158 l 792 -158 l 792 -332 l 610 -332 l 539 -261 l 539 -118 l 657 0 z "},"Ẽ":{"ha":847,"x_min":111,"x_max":792,"o":"m 792 0 l 111 0 l 111 972 l 783 972 l 783 722 l 389 722 l 389 588 l 681 588 l 681 379 l 389 379 l 389 250 l 792 250 l 792 0 m 361 1056 l 206 1056 l 206 1210 l 276 1281 l 433 1281 l 519 1194 l 542 1194 l 542 1281 l 697 1281 l 697 1126 l 626 1056 l 469 1056 l 383 1142 l 361 1142 l 361 1056 z "},"F":{"ha":818,"x_min":111,"x_max":776,"o":"m 389 0 l 111 0 l 111 972 l 776 972 l 776 722 l 389 722 l 389 551 l 681 551 l 681 329 l 389 329 l 389 0 z "},"G":{"ha":953,"x_min":76,"x_max":876,"o":"m 725 0 l 228 0 l 76 151 l 76 821 l 228 972 l 725 972 l 876 821 l 876 631 l 599 631 l 599 722 l 354 722 l 354 250 l 613 250 l 613 340 l 482 340 l 482 540 l 876 540 l 876 151 l 725 0 z "},"Ğ":{"ha":953,"x_min":76,"x_max":876,"o":"m 725 0 l 228 0 l 76 151 l 76 821 l 228 972 l 725 972 l 876 821 l 876 631 l 599 631 l 599 722 l 354 722 l 354 250 l 613 250 l 613 340 l 482 340 l 482 540 l 876 540 l 876 151 l 725 0 m 236 1274 l 407 1274 l 407 1203 l 546 1203 l 546 1274 l 717 1274 l 717 1140 l 632 1056 l 321 1056 l 236 1140 l 236 1274 z "},"Ģ":{"ha":953,"x_min":76,"x_max":876,"o":"m 725 0 l 228 0 l 76 151 l 76 821 l 228 972 l 725 972 l 876 821 l 876 631 l 599 631 l 599 722 l 354 722 l 354 250 l 613 250 l 613 340 l 482 340 l 482 540 l 876 540 l 876 151 l 725 0 m 360 -83 l 588 -83 l 588 -211 l 431 -365 l 311 -365 l 360 -201 l 360 -83 z "},"Ġ":{"ha":953,"x_min":76,"x_max":876,"o":"m 725 0 l 228 0 l 76 151 l 76 821 l 228 972 l 725 972 l 876 821 l 876 631 l 599 631 l 599 722 l 354 722 l 354 250 l 613 250 l 613 340 l 482 340 l 482 540 l 876 540 l 876 151 l 725 0 m 358 1276 l 594 1276 l 594 1056 l 358 1056 l 358 1276 z "},"H":{"ha":1069,"x_min":111,"x_max":958,"o":"m 111 0 l 111 972 l 389 972 l 389 608 l 681 608 l 681 972 l 958 972 l 958 0 l 681 0 l 681 372 l 389 372 l 389 0 l 111 0 z "},"Ħ":{"ha":1292,"x_min":111,"x_max":1181,"o":"m 500 0 l 222 0 l 222 668 l 111 668 l 111 835 l 222 835 l 222 972 l 500 972 l 500 835 l 792 835 l 792 972 l 1069 972 l 1069 835 l 1181 835 l 1181 668 l 1069 668 l 1069 0 l 792 0 l 792 329 l 500 329 l 500 0 m 500 668 l 500 538 l 792 538 l 792 668 l 500 668 z "},"I":{"ha":500,"x_min":111,"x_max":389,"o":"m 111 0 l 111 972 l 389 972 l 389 0 l 111 0 z "},"Í":{"ha":500,"x_min":97,"x_max":472,"o":"m 111 0 l 111 972 l 389 972 l 389 0 l 111 0 m 472 1276 l 472 1183 l 264 1051 l 97 1051 l 188 1197 l 188 1276 l 472 1276 z "},"Î":{"ha":500,"x_min":19,"x_max":481,"o":"m 111 0 l 111 972 l 389 972 l 389 0 l 111 0 m 225 1107 l 19 1018 l 19 1115 l 200 1296 l 300 1296 l 481 1115 l 481 1018 l 275 1107 l 225 1107 z "},"Ï":{"ha":500,"x_min":-21,"x_max":521,"o":"m 111 0 l 111 972 l 389 972 l 389 0 l 111 0 m -21 1263 l 201 1263 l 201 1056 l -21 1056 l -21 1263 m 299 1263 l 521 1263 l 521 1056 l 299 1056 l 299 1263 z "},"İ":{"ha":500,"x_min":111,"x_max":389,"o":"m 111 0 l 111 972 l 389 972 l 389 0 l 111 0 m 132 1276 l 368 1276 l 368 1056 l 132 1056 l 132 1276 z "},"Ì":{"ha":500,"x_min":28,"x_max":403,"o":"m 111 0 l 111 972 l 389 972 l 389 0 l 111 0 m 236 1051 l 28 1183 l 28 1276 l 313 1276 l 313 1197 l 403 1051 l 236 1051 z "},"Ī":{"ha":500,"x_min":36,"x_max":464,"o":"m 111 0 l 111 972 l 389 972 l 389 0 l 111 0 m 36 1081 l 36 1242 l 464 1242 l 464 1081 l 36 1081 z "},"Į":{"ha":500,"x_min":111,"x_max":389,"o":"m 111 0 l 111 972 l 389 972 l 389 0 l 111 0 m 254 0 l 389 0 l 303 -86 l 303 -158 l 389 -158 l 389 -332 l 207 -332 l 136 -261 l 136 -118 l 254 0 z "},"Ĩ":{"ha":500,"x_min":4,"x_max":496,"o":"m 111 0 l 111 972 l 389 972 l 389 0 l 111 0 m 160 1056 l 4 1056 l 4 1210 l 75 1281 l 232 1281 l 318 1194 l 340 1194 l 340 1281 l 496 1281 l 496 1126 l 425 1056 l 268 1056 l 182 1142 l 160 1142 l 160 1056 z "},"J":{"ha":826,"x_min":28,"x_max":715,"o":"m 564 0 l 179 0 l 28 151 l 28 438 l 306 438 l 306 250 l 438 250 l 438 972 l 715 972 l 715 151 l 564 0 z "},"K":{"ha":986,"x_min":111,"x_max":917,"o":"m 389 0 l 111 0 l 111 972 l 389 972 l 389 608 l 444 608 l 633 839 l 633 972 l 911 972 l 911 768 l 668 493 l 917 204 l 917 0 l 639 0 l 639 133 l 443 372 l 389 372 l 389 0 z "},"Ķ":{"ha":986,"x_min":111,"x_max":917,"o":"m 389 0 l 111 0 l 111 972 l 389 972 l 389 608 l 444 608 l 633 839 l 633 972 l 911 972 l 911 768 l 668 493 l 917 204 l 917 0 l 639 0 l 639 133 l 443 372 l 389 372 l 389 0 m 397 -83 l 625 -83 l 625 -211 l 468 -365 l 349 -365 l 397 -201 l 397 -83 z "},"L":{"ha":764,"x_min":111,"x_max":736,"o":"m 736 0 l 111 0 l 111 972 l 389 972 l 389 250 l 736 250 l 736 0 z "},"Ĺ":{"ha":764,"x_min":90,"x_max":736,"o":"m 736 0 l 111 0 l 111 972 l 389 972 l 389 250 l 736 250 l 736 0 m 465 1276 l 465 1183 l 257 1051 l 90 1051 l 181 1197 l 181 1276 l 465 1276 z "},"Ľ":{"ha":764,"x_min":111,"x_max":736,"o":"m 736 0 l 111 0 l 111 972 l 389 972 l 389 250 l 736 250 l 736 0 m 679 972 l 679 879 l 546 671 l 444 671 l 474 893 l 474 972 l 679 972 z "},"Ļ":{"ha":764,"x_min":111,"x_max":736,"o":"m 736 0 l 111 0 l 111 972 l 389 972 l 389 250 l 736 250 l 736 0 m 307 -83 l 535 -83 l 535 -211 l 378 -365 l 258 -365 l 307 -201 l 307 -83 z "},"Ł":{"ha":750,"x_min":4,"x_max":722,"o":"m 722 0 l 97 0 l 97 293 l 4 200 l 4 411 l 97 504 l 97 972 l 375 972 l 375 756 l 521 901 l 521 690 l 375 544 l 375 250 l 722 250 l 722 0 z "},"M":{"ha":1369,"x_min":111,"x_max":1258,"o":"m 383 0 l 111 0 l 111 972 l 383 972 l 383 868 l 685 567 l 986 868 l 986 972 l 1258 972 l 1258 0 l 986 0 l 986 319 q 990 422 986 363 q 999 531 993 482 l 815 347 l 815 169 l 554 169 l 554 347 l 371 531 q 380 422 376 482 q 383 319 383 363 l 383 0 z "},"N":{"ha":1089,"x_min":111,"x_max":978,"o":"m 381 0 l 111 0 l 111 972 l 381 972 l 381 851 l 721 469 q 712 578 715 518 q 708 681 708 638 l 708 972 l 978 972 l 978 0 l 708 0 l 708 121 l 368 503 q 377 394 374 454 q 381 292 381 335 l 381 0 z "},"Ń":{"ha":1089,"x_min":111,"x_max":978,"o":"m 381 0 l 111 0 l 111 972 l 381 972 l 381 851 l 721 469 q 712 578 715 518 q 708 681 708 638 l 708 972 l 978 972 l 978 0 l 708 0 l 708 121 l 368 503 q 377 394 374 454 q 381 292 381 335 l 381 0 m 767 1276 l 767 1183 l 558 1051 l 392 1051 l 482 1197 l 482 1276 l 767 1276 z "},"Ň":{"ha":1089,"x_min":111,"x_max":978,"o":"m 381 0 l 111 0 l 111 972 l 381 972 l 381 851 l 721 469 q 712 578 715 518 q 708 681 708 638 l 708 972 l 978 972 l 978 0 l 708 0 l 708 121 l 368 503 q 377 394 374 454 q 381 292 381 335 l 381 0 m 775 1213 l 594 1032 l 494 1032 l 314 1213 l 314 1310 l 519 1221 l 569 1221 l 775 1310 l 775 1213 z "},"Ņ":{"ha":1089,"x_min":111,"x_max":978,"o":"m 381 0 l 111 0 l 111 972 l 381 972 l 381 851 l 721 469 q 712 578 715 518 q 708 681 708 638 l 708 972 l 978 972 l 978 0 l 708 0 l 708 121 l 368 503 q 377 394 374 454 q 381 292 381 335 l 381 0 m 428 -83 l 656 -83 l 656 -211 l 499 -365 l 379 -365 l 428 -201 l 428 -83 z "},"Ñ":{"ha":1089,"x_min":111,"x_max":978,"o":"m 381 0 l 111 0 l 111 972 l 381 972 l 381 851 l 721 469 q 712 578 715 518 q 708 681 708 638 l 708 972 l 978 972 l 978 0 l 708 0 l 708 121 l 368 503 q 377 394 374 454 q 381 292 381 335 l 381 0 m 454 1056 l 299 1056 l 299 1210 l 369 1281 l 526 1281 l 613 1194 l 635 1194 l 635 1281 l 790 1281 l 790 1126 l 719 1056 l 563 1056 l 476 1142 l 454 1142 l 454 1056 z "},"O":{"ha":972,"x_min":76,"x_max":896,"o":"m 744 0 l 228 0 l 76 151 l 76 821 l 228 972 l 744 972 l 896 821 l 896 151 l 744 0 m 354 722 l 354 250 l 618 250 l 618 722 l 354 722 z "},"Ó":{"ha":972,"x_min":76,"x_max":896,"o":"m 744 0 l 228 0 l 76 151 l 76 821 l 228 972 l 744 972 l 896 821 l 896 151 l 744 0 m 354 722 l 354 250 l 618 250 l 618 722 l 354 722 m 708 1276 l 708 1183 l 500 1051 l 333 1051 l 424 1197 l 424 1276 l 708 1276 z "},"Ô":{"ha":972,"x_min":76,"x_max":896,"o":"m 744 0 l 228 0 l 76 151 l 76 821 l 228 972 l 744 972 l 896 821 l 896 151 l 744 0 m 354 722 l 354 250 l 618 250 l 618 722 l 354 722 m 461 1107 l 256 1018 l 256 1115 l 436 1296 l 536 1296 l 717 1115 l 717 1018 l 511 1107 l 461 1107 z "},"Ö":{"ha":972,"x_min":76,"x_max":896,"o":"m 744 0 l 228 0 l 76 151 l 76 821 l 228 972 l 744 972 l 896 821 l 896 151 l 744 0 m 354 722 l 354 250 l 618 250 l 618 722 l 354 722 m 215 1263 l 438 1263 l 438 1056 l 215 1056 l 215 1263 m 535 1263 l 757 1263 l 757 1056 l 535 1056 l 535 1263 z "},"Ò":{"ha":972,"x_min":76,"x_max":896,"o":"m 744 0 l 228 0 l 76 151 l 76 821 l 228 972 l 744 972 l 896 821 l 896 151 l 744 0 m 354 722 l 354 250 l 618 250 l 618 722 l 354 722 m 472 1051 l 264 1183 l 264 1276 l 549 1276 l 549 1197 l 639 1051 l 472 1051 z "},"Ő":{"ha":972,"x_min":76,"x_max":896,"o":"m 744 0 l 228 0 l 76 151 l 76 821 l 228 972 l 744 972 l 896 821 l 896 151 l 744 0 m 354 722 l 354 250 l 618 250 l 618 722 l 354 722 m 514 1276 l 514 1183 l 382 1051 l 243 1051 l 299 1197 l 299 1276 l 514 1276 m 799 1276 l 799 1183 l 667 1051 l 528 1051 l 583 1197 l 583 1276 l 799 1276 z "},"Ō":{"ha":972,"x_min":76,"x_max":896,"o":"m 744 0 l 228 0 l 76 151 l 76 821 l 228 972 l 744 972 l 896 821 l 896 151 l 744 0 m 354 722 l 354 250 l 618 250 l 618 722 l 354 722 m 272 1081 l 272 1242 l 700 1242 l 700 1081 l 272 1081 z "},"Ø":{"ha":972,"x_min":76,"x_max":896,"o":"m 282 -83 l 114 -83 l 181 47 l 76 151 l 76 821 l 228 972 l 649 972 l 690 1056 l 858 1056 l 792 925 l 896 821 l 896 151 l 744 0 l 324 0 l 282 -83 m 532 728 l 346 728 l 346 360 l 532 728 m 440 244 l 626 244 l 626 611 l 440 244 z "},"Õ":{"ha":972,"x_min":76,"x_max":896,"o":"m 744 0 l 228 0 l 76 151 l 76 821 l 228 972 l 744 972 l 896 821 l 896 151 l 744 0 m 354 722 l 354 250 l 618 250 l 618 722 l 354 722 m 396 1056 l 240 1056 l 240 1210 l 311 1281 l 468 1281 l 554 1194 l 576 1194 l 576 1281 l 732 1281 l 732 1126 l 661 1056 l 504 1056 l 418 1142 l 396 1142 l 396 1056 z "},"Œ":{"ha":1354,"x_min":76,"x_max":1299,"o":"m 1299 0 l 228 0 l 76 151 l 76 821 l 228 972 l 1290 972 l 1290 722 l 896 722 l 896 588 l 1188 588 l 1188 379 l 896 379 l 896 250 l 1299 250 l 1299 0 m 354 722 l 354 250 l 618 250 l 618 722 l 354 722 z "},"P":{"ha":947,"x_min":111,"x_max":892,"o":"m 389 0 l 111 0 l 111 972 l 740 972 l 892 821 l 892 461 l 707 276 l 389 276 l 389 0 m 389 513 l 583 513 l 614 543 l 614 722 l 389 722 l 389 513 z "},"Þ":{"ha":924,"x_min":97,"x_max":861,"o":"m 97 0 l 97 972 l 375 972 l 375 828 l 710 828 l 861 676 l 861 331 l 676 146 l 375 146 l 375 0 l 97 0 m 583 413 l 583 592 l 375 592 l 375 382 l 553 382 l 583 413 z "},"Q":{"ha":972,"x_min":76,"x_max":896,"o":"m 335 0 l 228 0 l 76 151 l 76 821 l 228 972 l 744 972 l 896 821 l 896 151 l 744 0 l 626 0 l 775 -196 l 775 -278 l 533 -278 l 335 0 m 354 722 l 354 250 l 618 250 l 618 722 l 354 722 z "},"R":{"ha":965,"x_min":111,"x_max":889,"o":"m 389 0 l 111 0 l 111 972 l 732 972 l 883 821 l 883 500 l 785 401 l 889 297 l 889 0 l 611 0 l 611 257 l 581 288 l 389 288 l 389 0 m 606 540 l 606 750 l 389 750 l 389 510 l 575 510 l 606 540 z "},"Ŕ":{"ha":965,"x_min":111,"x_max":889,"o":"m 389 0 l 111 0 l 111 972 l 732 972 l 883 821 l 883 500 l 785 401 l 889 297 l 889 0 l 611 0 l 611 257 l 581 288 l 389 288 l 389 0 m 606 540 l 606 750 l 389 750 l 389 510 l 575 510 l 606 540 m 722 1276 l 722 1183 l 514 1051 l 347 1051 l 438 1197 l 438 1276 l 722 1276 z "},"Ř":{"ha":965,"x_min":111,"x_max":889,"o":"m 389 0 l 111 0 l 111 972 l 732 972 l 883 821 l 883 500 l 785 401 l 889 297 l 889 0 l 611 0 l 611 257 l 581 288 l 389 288 l 389 0 m 606 540 l 606 750 l 389 750 l 389 510 l 575 510 l 606 540 m 731 1213 l 550 1032 l 450 1032 l 269 1213 l 269 1310 l 475 1221 l 525 1221 l 731 1310 l 731 1213 z "},"Ŗ":{"ha":965,"x_min":111,"x_max":889,"o":"m 389 0 l 111 0 l 111 972 l 732 972 l 883 821 l 883 500 l 785 401 l 889 297 l 889 0 l 611 0 l 611 257 l 581 288 l 389 288 l 389 0 m 606 540 l 606 750 l 389 750 l 389 510 l 575 510 l 606 540 m 383 -83 l 611 -83 l 611 -211 l 454 -365 l 335 -365 l 383 -201 l 383 -83 z "},"S":{"ha":890,"x_min":69,"x_max":821,"o":"m 669 0 l 221 0 l 69 151 l 69 313 l 339 313 l 339 222 l 551 222 l 551 375 l 222 375 l 71 526 l 71 821 l 222 972 l 658 972 l 810 821 l 810 658 l 540 658 l 540 750 l 340 750 l 340 597 l 669 597 l 821 446 l 821 151 l 669 0 z "},"Ś":{"ha":890,"x_min":69,"x_max":821,"o":"m 669 0 l 221 0 l 69 151 l 69 313 l 339 313 l 339 222 l 551 222 l 551 375 l 222 375 l 71 526 l 71 821 l 222 972 l 658 972 l 810 821 l 810 658 l 540 658 l 540 750 l 340 750 l 340 597 l 669 597 l 821 446 l 821 151 l 669 0 m 667 1276 l 667 1183 l 458 1051 l 292 1051 l 382 1197 l 382 1276 l 667 1276 z "},"Š":{"ha":890,"x_min":69,"x_max":821,"o":"m 669 0 l 221 0 l 69 151 l 69 313 l 339 313 l 339 222 l 551 222 l 551 375 l 222 375 l 71 526 l 71 821 l 222 972 l 658 972 l 810 821 l 810 658 l 540 658 l 540 750 l 340 750 l 340 597 l 669 597 l 821 446 l 821 151 l 669 0 m 675 1213 l 494 1032 l 394 1032 l 214 1213 l 214 1310 l 419 1221 l 469 1221 l 675 1310 l 675 1213 z "},"Ş":{"ha":890,"x_min":69,"x_max":821,"o":"m 669 0 l 221 0 l 69 151 l 69 313 l 339 313 l 339 222 l 551 222 l 551 375 l 222 375 l 71 526 l 71 821 l 222 972 l 658 972 l 810 821 l 810 658 l 540 658 l 540 750 l 340 750 l 340 597 l 669 597 l 821 446 l 821 151 l 669 0 m 569 -244 l 499 -315 l 303 -315 l 303 -278 l 389 -192 l 389 -160 l 317 -87 l 463 58 l 574 58 l 471 -44 l 569 -143 l 569 -244 z "},"Ș":{"ha":890,"x_min":69,"x_max":821,"o":"m 669 0 l 221 0 l 69 151 l 69 313 l 339 313 l 339 222 l 551 222 l 551 375 l 222 375 l 71 526 l 71 821 l 222 972 l 658 972 l 810 821 l 810 658 l 540 658 l 540 750 l 340 750 l 340 597 l 669 597 l 821 446 l 821 151 l 669 0 m 328 -83 l 556 -83 l 556 -211 l 399 -365 l 279 -365 l 328 -201 l 328 -83 z "},"T":{"ha":806,"x_min":28,"x_max":778,"o":"m 28 722 l 28 972 l 778 972 l 778 722 l 542 722 l 542 0 l 264 0 l 264 722 l 28 722 z "},"Ť":{"ha":806,"x_min":28,"x_max":778,"o":"m 28 722 l 28 972 l 778 972 l 778 722 l 542 722 l 542 0 l 264 0 l 264 722 l 28 722 m 633 1213 l 453 1032 l 353 1032 l 172 1213 l 172 1310 l 378 1221 l 428 1221 l 633 1310 l 633 1213 z "},"Ţ":{"ha":806,"x_min":28,"x_max":778,"o":"m 28 722 l 28 972 l 778 972 l 778 722 l 542 722 l 542 0 l 264 0 l 264 722 l 28 722 m 286 -83 l 514 -83 l 514 -211 l 357 -365 l 238 -365 l 286 -201 l 286 -83 z "},"Ț":{"ha":806,"x_min":28,"x_max":778,"o":"m 28 722 l 28 972 l 778 972 l 778 722 l 542 722 l 542 0 l 264 0 l 264 722 l 28 722 m 286 -83 l 514 -83 l 514 -211 l 357 -365 l 238 -365 l 286 -201 l 286 -83 z "},"U":{"ha":1028,"x_min":104,"x_max":924,"o":"m 646 972 l 924 972 l 924 151 l 772 0 l 256 0 l 104 151 l 104 972 l 382 972 l 382 250 l 646 250 l 646 972 z "},"Ú":{"ha":1028,"x_min":104,"x_max":924,"o":"m 646 972 l 924 972 l 924 151 l 772 0 l 256 0 l 104 151 l 104 972 l 382 972 l 382 250 l 646 250 l 646 972 m 736 1276 l 736 1183 l 528 1051 l 361 1051 l 451 1197 l 451 1276 l 736 1276 z "},"Û":{"ha":1028,"x_min":104,"x_max":924,"o":"m 646 972 l 924 972 l 924 151 l 772 0 l 256 0 l 104 151 l 104 972 l 382 972 l 382 250 l 646 250 l 646 972 m 489 1107 l 283 1018 l 283 1115 l 464 1296 l 564 1296 l 744 1115 l 744 1018 l 539 1107 l 489 1107 z "},"Ü":{"ha":1028,"x_min":104,"x_max":924,"o":"m 646 972 l 924 972 l 924 151 l 772 0 l 256 0 l 104 151 l 104 972 l 382 972 l 382 250 l 646 250 l 646 972 m 243 1263 l 465 1263 l 465 1056 l 243 1056 l 243 1263 m 563 1263 l 785 1263 l 785 1056 l 563 1056 l 563 1263 z "},"Ù":{"ha":1028,"x_min":104,"x_max":924,"o":"m 646 972 l 924 972 l 924 151 l 772 0 l 256 0 l 104 151 l 104 972 l 382 972 l 382 250 l 646 250 l 646 972 m 500 1051 l 292 1183 l 292 1276 l 576 1276 l 576 1197 l 667 1051 l 500 1051 z "},"Ű":{"ha":1028,"x_min":104,"x_max":924,"o":"m 646 972 l 924 972 l 924 151 l 772 0 l 256 0 l 104 151 l 104 972 l 382 972 l 382 250 l 646 250 l 646 972 m 542 1276 l 542 1183 l 410 1051 l 271 1051 l 326 1197 l 326 1276 l 542 1276 m 826 1276 l 826 1183 l 694 1051 l 556 1051 l 611 1197 l 611 1276 l 826 1276 z "},"Ū":{"ha":1028,"x_min":104,"x_max":924,"o":"m 646 972 l 924 972 l 924 151 l 772 0 l 256 0 l 104 151 l 104 972 l 382 972 l 382 250 l 646 250 l 646 972 m 300 1081 l 300 1242 l 728 1242 l 728 1081 l 300 1081 z "},"Ų":{"ha":1028,"x_min":104,"x_max":924,"o":"m 646 972 l 924 972 l 924 151 l 772 0 l 256 0 l 104 151 l 104 972 l 382 972 l 382 250 l 646 250 l 646 972 m 638 0 l 772 0 l 686 -86 l 686 -158 l 772 -158 l 772 -332 l 590 -332 l 519 -261 l 519 -118 l 638 0 z "},"Ů":{"ha":1028,"x_min":104,"x_max":924,"o":"m 646 972 l 924 972 l 924 151 l 772 0 l 256 0 l 104 151 l 104 972 l 382 972 l 382 250 l 646 250 l 646 972 m 378 1367 l 650 1367 l 735 1282 l 735 1140 l 650 1056 l 378 1056 l 293 1140 l 293 1282 l 378 1367 m 582 1161 l 582 1261 l 446 1261 l 446 1161 l 582 1161 z "},"Ũ":{"ha":1028,"x_min":104,"x_max":924,"o":"m 646 972 l 924 972 l 924 151 l 772 0 l 256 0 l 104 151 l 104 972 l 382 972 l 382 250 l 646 250 l 646 972 m 424 1056 l 268 1056 l 268 1210 l 339 1281 l 496 1281 l 582 1194 l 604 1194 l 604 1281 l 760 1281 l 760 1126 l 689 1056 l 532 1056 l 446 1142 l 424 1142 l 424 1056 z "},"V":{"ha":917,"x_min":28,"x_max":889,"o":"m 28 785 l 28 972 l 306 972 l 306 794 l 458 274 l 611 794 l 611 972 l 889 972 l 889 782 l 638 0 l 279 0 l 28 785 z "},"W":{"ha":1375,"x_min":28,"x_max":1347,"o":"m 28 782 l 28 972 l 306 972 l 306 794 l 419 340 l 549 794 l 549 972 l 826 972 l 826 794 l 957 338 l 1069 794 l 1069 972 l 1347 972 l 1347 782 l 1111 0 l 838 0 l 682 486 l 539 0 l 265 0 l 28 782 z "},"Ẃ":{"ha":1375,"x_min":28,"x_max":1347,"o":"m 28 782 l 28 972 l 306 972 l 306 794 l 419 340 l 549 794 l 549 972 l 826 972 l 826 794 l 957 338 l 1069 794 l 1069 972 l 1347 972 l 1347 782 l 1111 0 l 838 0 l 682 486 l 539 0 l 265 0 l 28 782 m 910 1276 l 910 1183 l 701 1051 l 535 1051 l 625 1197 l 625 1276 l 910 1276 z "},"Ŵ":{"ha":1375,"x_min":28,"x_max":1347,"o":"m 28 782 l 28 972 l 306 972 l 306 794 l 419 340 l 549 794 l 549 972 l 826 972 l 826 794 l 957 338 l 1069 794 l 1069 972 l 1347 972 l 1347 782 l 1111 0 l 838 0 l 682 486 l 539 0 l 265 0 l 28 782 m 663 1107 l 457 1018 l 457 1115 l 638 1296 l 738 1296 l 918 1115 l 918 1018 l 713 1107 l 663 1107 z "},"Ẅ":{"ha":1375,"x_min":28,"x_max":1347,"o":"m 28 782 l 28 972 l 306 972 l 306 794 l 419 340 l 549 794 l 549 972 l 826 972 l 826 794 l 957 338 l 1069 794 l 1069 972 l 1347 972 l 1347 782 l 1111 0 l 838 0 l 682 486 l 539 0 l 265 0 l 28 782 m 417 1263 l 639 1263 l 639 1056 l 417 1056 l 417 1263 m 736 1263 l 958 1263 l 958 1056 l 736 1056 l 736 1263 z "},"Ẁ":{"ha":1375,"x_min":28,"x_max":1347,"o":"m 28 782 l 28 972 l 306 972 l 306 794 l 419 340 l 549 794 l 549 972 l 826 972 l 826 794 l 957 338 l 1069 794 l 1069 972 l 1347 972 l 1347 782 l 1111 0 l 838 0 l 682 486 l 539 0 l 265 0 l 28 782 m 674 1051 l 465 1183 l 465 1276 l 750 1276 l 750 1197 l 840 1051 l 674 1051 z "},"X":{"ha":936,"x_min":49,"x_max":888,"o":"m 326 0 l 49 0 l 49 193 l 310 490 l 57 779 l 57 972 l 335 972 l 335 825 l 468 669 l 601 825 l 601 972 l 879 972 l 879 779 l 626 490 l 888 193 l 888 0 l 610 0 l 610 147 l 468 313 l 326 147 l 326 0 z "},"Y":{"ha":906,"x_min":28,"x_max":878,"o":"m 592 0 l 314 0 l 314 279 l 28 756 l 28 972 l 306 972 l 306 794 l 453 526 l 600 794 l 600 972 l 878 972 l 878 754 l 592 279 l 592 0 z "},"Ý":{"ha":906,"x_min":28,"x_max":878,"o":"m 592 0 l 314 0 l 314 279 l 28 756 l 28 972 l 306 972 l 306 794 l 453 526 l 600 794 l 600 972 l 878 972 l 878 754 l 592 279 l 592 0 m 675 1276 l 675 1183 l 467 1051 l 300 1051 l 390 1197 l 390 1276 l 675 1276 z "},"Ŷ":{"ha":906,"x_min":28,"x_max":878,"o":"m 592 0 l 314 0 l 314 279 l 28 756 l 28 972 l 306 972 l 306 794 l 453 526 l 600 794 l 600 972 l 878 972 l 878 754 l 592 279 l 592 0 m 428 1107 l 222 1018 l 222 1115 l 403 1296 l 503 1296 l 683 1115 l 683 1018 l 478 1107 l 428 1107 z "},"Ÿ":{"ha":906,"x_min":28,"x_max":878,"o":"m 592 0 l 314 0 l 314 279 l 28 756 l 28 972 l 306 972 l 306 794 l 453 526 l 600 794 l 600 972 l 878 972 l 878 754 l 592 279 l 592 0 m 182 1263 l 404 1263 l 404 1056 l 182 1056 l 182 1263 m 501 1263 l 724 1263 l 724 1056 l 501 1056 l 501 1263 z "},"Ỳ":{"ha":906,"x_min":28,"x_max":878,"o":"m 592 0 l 314 0 l 314 279 l 28 756 l 28 972 l 306 972 l 306 794 l 453 526 l 600 794 l 600 972 l 878 972 l 878 754 l 592 279 l 592 0 m 439 1051 l 231 1183 l 231 1276 l 515 1276 l 515 1197 l 606 1051 l 439 1051 z "},"Ỹ":{"ha":906,"x_min":28,"x_max":878,"o":"m 592 0 l 314 0 l 314 279 l 28 756 l 28 972 l 306 972 l 306 794 l 453 526 l 600 794 l 600 972 l 878 972 l 878 754 l 592 279 l 592 0 m 363 1056 l 207 1056 l 207 1210 l 278 1281 l 435 1281 l 521 1194 l 543 1194 l 543 1281 l 699 1281 l 699 1126 l 628 1056 l 471 1056 l 385 1142 l 363 1142 l 363 1056 z "},"Z":{"ha":863,"x_min":63,"x_max":814,"o":"m 814 0 l 63 0 l 63 378 l 535 704 l 535 731 l 69 731 l 69 972 l 804 972 l 804 594 l 332 268 l 332 242 l 814 242 l 814 0 z "},"Ź":{"ha":863,"x_min":63,"x_max":814,"o":"m 814 0 l 63 0 l 63 378 l 535 704 l 535 731 l 69 731 l 69 972 l 804 972 l 804 594 l 332 268 l 332 242 l 814 242 l 814 0 m 653 1276 l 653 1183 l 444 1051 l 278 1051 l 368 1197 l 368 1276 l 653 1276 z "},"Ž":{"ha":863,"x_min":63,"x_max":814,"o":"m 814 0 l 63 0 l 63 378 l 535 704 l 535 731 l 69 731 l 69 972 l 804 972 l 804 594 l 332 268 l 332 242 l 814 242 l 814 0 m 661 1213 l 481 1032 l 381 1032 l 200 1213 l 200 1310 l 406 1221 l 456 1221 l 661 1310 l 661 1213 z "},"Ż":{"ha":863,"x_min":63,"x_max":814,"o":"m 814 0 l 63 0 l 63 378 l 535 704 l 535 731 l 69 731 l 69 972 l 804 972 l 804 594 l 332 268 l 332 242 l 814 242 l 814 0 m 313 1276 l 549 1276 l 549 1056 l 313 1056 l 313 1276 z "},"a":{"ha":844,"x_min":63,"x_max":768,"o":"m 768 613 l 768 0 l 544 0 l 544 94 l 450 0 l 214 0 l 63 151 l 63 290 l 214 442 l 510 442 l 510 536 l 328 536 l 328 494 l 75 494 l 75 613 l 226 764 l 617 764 l 768 613 m 510 311 l 321 311 l 321 206 l 478 206 l 510 231 l 510 311 z "},"á":{"ha":844,"x_min":63,"x_max":768,"o":"m 768 613 l 768 0 l 544 0 l 544 94 l 450 0 l 214 0 l 63 151 l 63 290 l 214 442 l 510 442 l 510 536 l 328 536 l 328 494 l 75 494 l 75 613 l 226 764 l 617 764 l 768 613 m 510 311 l 321 311 l 321 206 l 478 206 l 510 231 l 510 311 m 638 1068 l 638 975 l 429 843 l 263 843 l 353 989 l 353 1068 l 638 1068 z "},"ă":{"ha":844,"x_min":63,"x_max":768,"o":"m 768 613 l 768 0 l 544 0 l 544 94 l 450 0 l 214 0 l 63 151 l 63 290 l 214 442 l 510 442 l 510 536 l 328 536 l 328 494 l 75 494 l 75 613 l 226 764 l 617 764 l 768 613 m 510 311 l 321 311 l 321 206 l 478 206 l 510 231 l 510 311 m 175 1065 l 346 1065 l 346 994 l 485 994 l 485 1065 l 656 1065 l 656 932 l 571 847 l 260 847 l 175 932 l 175 1065 z "},"â":{"ha":844,"x_min":63,"x_max":768,"o":"m 768 613 l 768 0 l 544 0 l 544 94 l 450 0 l 214 0 l 63 151 l 63 290 l 214 442 l 510 442 l 510 536 l 328 536 l 328 494 l 75 494 l 75 613 l 226 764 l 617 764 l 768 613 m 510 311 l 321 311 l 321 206 l 478 206 l 510 231 l 510 311 m 390 899 l 185 810 l 185 907 l 365 1088 l 465 1088 l 646 907 l 646 810 l 440 899 l 390 899 z "},"ä":{"ha":844,"x_min":63,"x_max":768,"o":"m 768 613 l 768 0 l 544 0 l 544 94 l 450 0 l 214 0 l 63 151 l 63 290 l 214 442 l 510 442 l 510 536 l 328 536 l 328 494 l 75 494 l 75 613 l 226 764 l 617 764 l 768 613 m 510 311 l 321 311 l 321 206 l 478 206 l 510 231 l 510 311 m 144 1054 l 367 1054 l 367 847 l 144 847 l 144 1054 m 464 1054 l 686 1054 l 686 847 l 464 847 l 464 1054 z "},"à":{"ha":844,"x_min":63,"x_max":768,"o":"m 768 613 l 768 0 l 544 0 l 544 94 l 450 0 l 214 0 l 63 151 l 63 290 l 214 442 l 510 442 l 510 536 l 328 536 l 328 494 l 75 494 l 75 613 l 226 764 l 617 764 l 768 613 m 510 311 l 321 311 l 321 206 l 478 206 l 510 231 l 510 311 m 401 843 l 193 975 l 193 1068 l 478 1068 l 478 989 l 568 843 l 401 843 z "},"ā":{"ha":844,"x_min":63,"x_max":768,"o":"m 768 613 l 768 0 l 544 0 l 544 94 l 450 0 l 214 0 l 63 151 l 63 290 l 214 442 l 510 442 l 510 536 l 328 536 l 328 494 l 75 494 l 75 613 l 226 764 l 617 764 l 768 613 m 510 311 l 321 311 l 321 206 l 478 206 l 510 231 l 510 311 m 201 872 l 201 1033 l 629 1033 l 629 872 l 201 872 z "},"ą":{"ha":839,"x_min":57,"x_max":763,"o":"m 763 613 l 763 0 l 676 -86 l 676 -158 l 763 -158 l 763 -332 l 581 -332 l 510 -261 l 510 -118 l 628 0 l 539 0 l 539 94 l 444 0 l 208 0 l 57 151 l 57 290 l 208 442 l 504 442 l 504 536 l 322 536 l 322 494 l 69 494 l 69 613 l 221 764 l 611 764 l 763 613 m 504 311 l 315 311 l 315 206 l 472 206 l 504 231 l 504 311 z "},"å":{"ha":844,"x_min":63,"x_max":768,"o":"m 768 613 l 768 0 l 544 0 l 544 94 l 450 0 l 214 0 l 63 151 l 63 290 l 214 442 l 510 442 l 510 536 l 328 536 l 328 494 l 75 494 l 75 613 l 226 764 l 617 764 l 768 613 m 510 311 l 321 311 l 321 206 l 478 206 l 510 231 l 510 311 m 279 1158 l 551 1158 l 636 1074 l 636 932 l 551 847 l 279 847 l 194 932 l 194 1074 l 279 1158 m 483 953 l 483 1053 l 347 1053 l 347 953 l 483 953 z "},"ã":{"ha":844,"x_min":63,"x_max":768,"o":"m 768 613 l 768 0 l 544 0 l 544 94 l 450 0 l 214 0 l 63 151 l 63 290 l 214 442 l 510 442 l 510 536 l 328 536 l 328 494 l 75 494 l 75 613 l 226 764 l 617 764 l 768 613 m 510 311 l 321 311 l 321 206 l 478 206 l 510 231 l 510 311 m 325 847 l 169 847 l 169 1001 l 240 1072 l 397 1072 l 483 986 l 506 986 l 506 1072 l 661 1072 l 661 918 l 590 847 l 433 847 l 347 933 l 325 933 l 325 847 z "},"æ":{"ha":1299,"x_min":63,"x_max":1236,"o":"m 978 214 l 978 275 l 1236 275 l 1236 151 l 1085 0 l 592 0 l 592 125 l 467 0 l 214 0 l 63 151 l 63 290 l 214 442 l 526 442 l 526 536 l 328 536 l 328 494 l 75 494 l 75 613 l 226 764 l 575 764 l 658 681 l 742 764 l 1085 764 l 1236 613 l 1236 333 l 790 333 l 790 214 l 978 214 m 978 550 l 790 550 l 790 453 l 978 453 l 978 550 m 526 311 l 321 311 l 321 206 l 494 206 l 526 231 l 526 311 z "},"b":{"ha":893,"x_min":90,"x_max":824,"o":"m 90 0 l 90 1042 l 360 1042 l 360 764 l 672 764 l 824 613 l 824 151 l 672 0 l 421 0 l 326 94 l 326 0 l 90 0 m 360 278 l 392 250 l 554 250 l 554 522 l 360 522 l 360 278 z "},"c":{"ha":819,"x_min":69,"x_max":764,"o":"m 506 242 l 506 333 l 764 333 l 764 151 l 613 0 l 221 0 l 69 151 l 69 613 l 221 764 l 613 764 l 764 613 l 764 431 l 506 431 l 506 522 l 333 522 l 333 242 l 506 242 z "},"ć":{"ha":819,"x_min":69,"x_max":764,"o":"m 506 242 l 506 333 l 764 333 l 764 151 l 613 0 l 221 0 l 69 151 l 69 613 l 221 764 l 613 764 l 764 613 l 764 431 l 506 431 l 506 522 l 333 522 l 333 242 l 506 242 m 639 1068 l 639 975 l 431 843 l 264 843 l 354 989 l 354 1068 l 639 1068 z "},"č":{"ha":819,"x_min":69,"x_max":764,"o":"m 506 242 l 506 333 l 764 333 l 764 151 l 613 0 l 221 0 l 69 151 l 69 613 l 221 764 l 613 764 l 764 613 l 764 431 l 506 431 l 506 522 l 333 522 l 333 242 l 506 242 m 647 1004 l 467 824 l 367 824 l 186 1004 l 186 1101 l 392 1013 l 442 1013 l 647 1101 l 647 1004 z "},"ç":{"ha":819,"x_min":69,"x_max":764,"o":"m 506 242 l 506 333 l 764 333 l 764 151 l 613 0 l 221 0 l 69 151 l 69 613 l 221 764 l 613 764 l 764 613 l 764 431 l 506 431 l 506 522 l 333 522 l 333 242 l 506 242 m 542 -244 l 471 -315 l 275 -315 l 275 -278 l 361 -192 l 361 -160 l 289 -87 l 435 58 l 546 58 l 443 -44 l 542 -143 l 542 -244 z "},"ċ":{"ha":819,"x_min":69,"x_max":764,"o":"m 506 242 l 506 333 l 764 333 l 764 151 l 613 0 l 221 0 l 69 151 l 69 613 l 221 764 l 613 764 l 764 613 l 764 431 l 506 431 l 506 522 l 333 522 l 333 242 l 506 242 m 299 1068 l 535 1068 l 535 847 l 299 847 l 299 1068 z "},"d":{"ha":893,"x_min":69,"x_max":803,"o":"m 533 1042 l 803 1042 l 803 0 l 567 0 l 567 94 l 472 0 l 221 0 l 69 151 l 69 613 l 221 764 l 533 764 l 533 1042 m 339 250 l 501 250 l 533 278 l 533 522 l 339 522 l 339 250 z "},"ð":{"ha":872,"x_min":69,"x_max":803,"o":"m 651 0 l 221 0 l 69 151 l 69 613 l 221 764 l 358 764 l 288 835 l 69 835 l 69 960 l 176 960 l 94 1042 l 374 1042 l 456 960 l 690 960 l 690 835 l 581 835 l 803 613 l 803 151 l 651 0 m 339 578 l 339 242 l 533 242 l 533 547 l 503 578 l 339 578 z "},"ď":{"ha":893,"x_min":69,"x_max":1094,"o":"m 533 1042 l 803 1042 l 803 0 l 567 0 l 567 94 l 472 0 l 221 0 l 69 151 l 69 613 l 221 764 l 533 764 l 533 1042 m 339 250 l 501 250 l 533 278 l 533 522 l 339 522 l 339 250 m 1094 1042 l 1094 949 l 961 740 l 860 740 l 889 963 l 889 1042 l 1094 1042 z "},"đ":{"ha":990,"x_min":69,"x_max":900,"o":"m 346 835 l 346 960 l 533 960 l 533 1042 l 803 1042 l 803 960 l 900 960 l 900 835 l 803 835 l 803 0 l 567 0 l 567 94 l 472 0 l 221 0 l 69 151 l 69 613 l 221 764 l 533 764 l 533 835 l 346 835 m 339 250 l 501 250 l 533 278 l 533 522 l 339 522 l 339 250 z "},"e":{"ha":842,"x_min":69,"x_max":779,"o":"m 521 214 l 521 275 l 779 275 l 779 151 l 628 0 l 221 0 l 69 151 l 69 613 l 221 764 l 628 764 l 779 613 l 779 333 l 333 333 l 333 214 l 521 214 m 521 550 l 333 550 l 333 453 l 521 453 l 521 550 z "},"é":{"ha":842,"x_min":69,"x_max":779,"o":"m 521 214 l 521 275 l 779 275 l 779 151 l 628 0 l 221 0 l 69 151 l 69 613 l 221 764 l 628 764 l 779 613 l 779 333 l 333 333 l 333 214 l 521 214 m 521 550 l 333 550 l 333 453 l 521 453 l 521 550 m 646 1068 l 646 975 l 438 843 l 271 843 l 361 989 l 361 1068 l 646 1068 z "},"ě":{"ha":842,"x_min":69,"x_max":779,"o":"m 521 214 l 521 275 l 779 275 l 779 151 l 628 0 l 221 0 l 69 151 l 69 613 l 221 764 l 628 764 l 779 613 l 779 333 l 333 333 l 333 214 l 521 214 m 521 550 l 333 550 l 333 453 l 521 453 l 521 550 m 654 1004 l 474 824 l 374 824 l 193 1004 l 193 1101 l 399 1013 l 449 1013 l 654 1101 l 654 1004 z "},"ê":{"ha":842,"x_min":69,"x_max":779,"o":"m 521 214 l 521 275 l 779 275 l 779 151 l 628 0 l 221 0 l 69 151 l 69 613 l 221 764 l 628 764 l 779 613 l 779 333 l 333 333 l 333 214 l 521 214 m 521 550 l 333 550 l 333 453 l 521 453 l 521 550 m 399 899 l 193 810 l 193 907 l 374 1088 l 474 1088 l 654 907 l 654 810 l 449 899 l 399 899 z "},"ë":{"ha":842,"x_min":69,"x_max":779,"o":"m 521 214 l 521 275 l 779 275 l 779 151 l 628 0 l 221 0 l 69 151 l 69 613 l 221 764 l 628 764 l 779 613 l 779 333 l 333 333 l 333 214 l 521 214 m 521 550 l 333 550 l 333 453 l 521 453 l 521 550 m 153 1054 l 375 1054 l 375 847 l 153 847 l 153 1054 m 472 1054 l 694 1054 l 694 847 l 472 847 l 472 1054 z "},"ė":{"ha":842,"x_min":69,"x_max":779,"o":"m 521 214 l 521 275 l 779 275 l 779 151 l 628 0 l 221 0 l 69 151 l 69 613 l 221 764 l 628 764 l 779 613 l 779 333 l 333 333 l 333 214 l 521 214 m 521 550 l 333 550 l 333 453 l 521 453 l 521 550 m 306 1068 l 542 1068 l 542 847 l 306 847 l 306 1068 z "},"è":{"ha":842,"x_min":69,"x_max":779,"o":"m 521 214 l 521 275 l 779 275 l 779 151 l 628 0 l 221 0 l 69 151 l 69 613 l 221 764 l 628 764 l 779 613 l 779 333 l 333 333 l 333 214 l 521 214 m 521 550 l 333 550 l 333 453 l 521 453 l 521 550 m 410 843 l 201 975 l 201 1068 l 486 1068 l 486 989 l 576 843 l 410 843 z "},"ē":{"ha":842,"x_min":69,"x_max":779,"o":"m 521 214 l 521 275 l 779 275 l 779 151 l 628 0 l 221 0 l 69 151 l 69 613 l 221 764 l 628 764 l 779 613 l 779 333 l 333 333 l 333 214 l 521 214 m 521 550 l 333 550 l 333 453 l 521 453 l 521 550 m 210 872 l 210 1033 l 638 1033 l 638 872 l 210 872 z "},"ę":{"ha":842,"x_min":69,"x_max":779,"o":"m 521 214 l 521 275 l 779 275 l 779 151 l 628 0 l 221 0 l 69 151 l 69 613 l 221 764 l 628 764 l 779 613 l 779 333 l 333 333 l 333 214 l 521 214 m 521 550 l 333 550 l 333 453 l 521 453 l 521 550 m 493 0 l 628 0 l 542 -86 l 542 -158 l 628 -158 l 628 -332 l 446 -332 l 375 -261 l 375 -118 l 493 0 z "},"ẽ":{"ha":842,"x_min":69,"x_max":779,"o":"m 521 214 l 521 275 l 779 275 l 779 151 l 628 0 l 221 0 l 69 151 l 69 613 l 221 764 l 628 764 l 779 613 l 779 333 l 333 333 l 333 214 l 521 214 m 521 550 l 333 550 l 333 453 l 521 453 l 521 550 m 333 847 l 178 847 l 178 1001 l 249 1072 l 406 1072 l 492 986 l 514 986 l 514 1072 l 669 1072 l 669 918 l 599 847 l 442 847 l 356 933 l 333 933 l 333 847 z "},"f":{"ha":604,"x_min":35,"x_max":576,"o":"m 413 0 l 143 0 l 143 556 l 35 556 l 35 764 l 143 764 l 143 890 l 294 1042 l 576 1042 l 576 833 l 413 833 l 413 764 l 563 764 l 563 556 l 413 556 l 413 0 z "},"g":{"ha":893,"x_min":63,"x_max":796,"o":"m 71 -12 l 326 -12 l 326 -69 l 526 -69 l 526 56 l 214 56 l 63 207 l 63 613 l 214 764 l 465 764 l 560 669 l 560 764 l 796 764 l 796 -140 l 644 -292 l 222 -292 l 71 -140 l 71 -12 m 332 514 l 332 269 l 526 269 l 526 486 l 494 514 l 332 514 z "},"ğ":{"ha":893,"x_min":63,"x_max":796,"o":"m 71 -12 l 326 -12 l 326 -69 l 526 -69 l 526 56 l 214 56 l 63 207 l 63 613 l 214 764 l 465 764 l 560 669 l 560 764 l 796 764 l 796 -140 l 644 -292 l 222 -292 l 71 -140 l 71 -12 m 332 514 l 332 269 l 526 269 l 526 486 l 494 514 l 332 514 m 189 1065 l 360 1065 l 360 994 l 499 994 l 499 1065 l 669 1065 l 669 932 l 585 847 l 274 847 l 189 932 l 189 1065 z "},"ģ":{"ha":893,"x_min":63,"x_max":796,"o":"m 71 -12 l 326 -12 l 326 -69 l 526 -69 l 526 56 l 214 56 l 63 207 l 63 613 l 214 764 l 465 764 l 560 669 l 560 764 l 796 764 l 796 -140 l 644 -292 l 222 -292 l 71 -140 l 71 -12 m 332 514 l 332 269 l 526 269 l 526 486 l 494 514 l 332 514 m 543 847 l 315 847 l 315 975 l 472 1129 l 592 1129 l 543 965 l 543 847 z "},"ġ":{"ha":893,"x_min":63,"x_max":796,"o":"m 71 -12 l 326 -12 l 326 -69 l 526 -69 l 526 56 l 214 56 l 63 207 l 63 613 l 214 764 l 465 764 l 560 669 l 560 764 l 796 764 l 796 -140 l 644 -292 l 222 -292 l 71 -140 l 71 -12 m 332 514 l 332 269 l 526 269 l 526 486 l 494 514 l 332 514 m 311 1068 l 547 1068 l 547 847 l 311 847 l 311 1068 z "},"h":{"ha":886,"x_min":76,"x_max":810,"o":"m 346 0 l 76 0 l 76 1042 l 346 1042 l 346 675 l 435 764 l 658 764 l 810 613 l 810 0 l 540 0 l 540 514 l 392 514 l 346 475 l 346 0 z "},"ħ":{"ha":886,"x_min":-28,"x_max":810,"o":"m 346 0 l 76 0 l 76 835 l -28 835 l -28 960 l 76 960 l 76 1042 l 346 1042 l 346 960 l 526 960 l 526 835 l 346 835 l 346 675 l 435 764 l 658 764 l 810 613 l 810 0 l 540 0 l 540 514 l 392 514 l 346 475 l 346 0 z "},"i":{"ha":422,"x_min":76,"x_max":346,"o":"m 346 847 l 76 847 l 76 1056 l 346 1056 l 346 847 m 346 0 l 76 0 l 76 764 l 346 764 l 346 0 z "},"ı":{"ha":422,"x_min":76,"x_max":346,"o":"m 346 0 l 76 0 l 76 764 l 346 764 l 346 0 z "},"í":{"ha":422,"x_min":58,"x_max":433,"o":"m 346 0 l 76 0 l 76 764 l 346 764 l 346 0 m 433 1068 l 433 975 l 225 843 l 58 843 l 149 989 l 149 1068 l 433 1068 z "},"î":{"ha":422,"x_min":-19,"x_max":442,"o":"m 346 0 l 76 0 l 76 764 l 346 764 l 346 0 m 186 899 l -19 810 l -19 907 l 161 1088 l 261 1088 l 442 907 l 442 810 l 236 899 l 186 899 z "},"ï":{"ha":422,"x_min":-60,"x_max":482,"o":"m 346 0 l 76 0 l 76 764 l 346 764 l 346 0 m -60 1054 l 163 1054 l 163 847 l -60 847 l -60 1054 m 260 1054 l 482 1054 l 482 847 l 260 847 l 260 1054 z "},"ì":{"ha":422,"x_min":-11,"x_max":364,"o":"m 346 0 l 76 0 l 76 764 l 346 764 l 346 0 m 197 843 l -11 975 l -11 1068 l 274 1068 l 274 989 l 364 843 l 197 843 z "},"ī":{"ha":422,"x_min":-3,"x_max":425,"o":"m 346 0 l 76 0 l 76 764 l 346 764 l 346 0 m -3 872 l -3 1033 l 425 1033 l 425 872 l -3 872 z "},"į":{"ha":422,"x_min":76,"x_max":346,"o":"m 346 847 l 76 847 l 76 1056 l 346 1056 l 346 847 m 346 0 l 76 0 l 76 764 l 346 764 l 346 0 m 211 0 l 346 0 l 260 -86 l 260 -158 l 346 -158 l 346 -332 l 164 -332 l 93 -261 l 93 -118 l 211 0 z "},"ĩ":{"ha":422,"x_min":-35,"x_max":457,"o":"m 346 0 l 76 0 l 76 764 l 346 764 l 346 0 m 121 847 l -35 847 l -35 1001 l 36 1072 l 193 1072 l 279 986 l 301 986 l 301 1072 l 457 1072 l 457 918 l 386 847 l 229 847 l 143 933 l 121 933 l 121 847 z "},"j":{"ha":422,"x_min":-54,"x_max":346,"o":"m 346 847 l 76 847 l 76 1056 l 346 1056 l 346 847 m 194 -292 l -54 -292 l -54 -50 l 76 -50 l 76 764 l 346 764 l 346 -140 l 194 -292 z "},"k":{"ha":840,"x_min":76,"x_max":785,"o":"m 346 0 l 76 0 l 76 1042 l 346 1042 l 346 522 l 501 667 l 501 764 l 771 764 l 771 590 l 597 439 l 785 190 l 785 0 l 515 0 l 515 128 l 415 279 l 346 218 l 346 0 z "},"ķ":{"ha":840,"x_min":76,"x_max":785,"o":"m 346 0 l 76 0 l 76 1042 l 346 1042 l 346 522 l 501 667 l 501 764 l 771 764 l 771 590 l 597 439 l 785 190 l 785 0 l 515 0 l 515 128 l 415 279 l 346 218 l 346 0 m 314 -83 l 542 -83 l 542 -211 l 385 -365 l 265 -365 l 314 -201 l 314 -83 z "},"l":{"ha":422,"x_min":76,"x_max":346,"o":"m 346 0 l 76 0 l 76 1042 l 346 1042 l 346 0 z "},"ĺ":{"ha":422,"x_min":58,"x_max":433,"o":"m 346 0 l 76 0 l 76 1042 l 346 1042 l 346 0 m 433 1346 l 433 1253 l 225 1121 l 58 1121 l 149 1267 l 149 1346 l 433 1346 z "},"ľ":{"ha":422,"x_min":76,"x_max":638,"o":"m 346 0 l 76 0 l 76 1042 l 346 1042 l 346 0 m 638 1042 l 638 949 l 504 740 l 403 740 l 432 963 l 432 1042 l 638 1042 z "},"ļ":{"ha":422,"x_min":46,"x_max":346,"o":"m 346 0 l 76 0 l 76 1042 l 346 1042 l 346 0 m 94 -83 l 322 -83 l 322 -211 l 165 -365 l 46 -365 l 94 -201 l 94 -83 z "},"ł":{"ha":422,"x_min":-28,"x_max":450,"o":"m 346 0 l 76 0 l 76 299 l -28 194 l -28 369 l 76 474 l 76 1042 l 346 1042 l 346 721 l 450 825 l 450 650 l 346 546 l 346 0 z "},"m":{"ha":1344,"x_min":76,"x_max":1268,"o":"m 346 0 l 76 0 l 76 764 l 313 764 l 313 669 l 407 764 l 672 764 l 756 681 l 839 764 l 1117 764 l 1268 613 l 1268 0 l 999 0 l 999 514 l 810 514 l 810 0 l 540 0 l 540 514 l 378 514 l 346 486 l 346 0 z "},"n":{"ha":886,"x_min":76,"x_max":810,"o":"m 346 0 l 76 0 l 76 764 l 313 764 l 313 669 l 407 764 l 658 764 l 810 613 l 810 0 l 540 0 l 540 514 l 378 514 l 346 486 l 346 0 z "},"ń":{"ha":886,"x_min":76,"x_max":810,"o":"m 346 0 l 76 0 l 76 764 l 313 764 l 313 669 l 407 764 l 658 764 l 810 613 l 810 0 l 540 0 l 540 514 l 378 514 l 346 486 l 346 0 m 665 1068 l 665 975 l 457 843 l 290 843 l 381 989 l 381 1068 l 665 1068 z "},"ň":{"ha":886,"x_min":76,"x_max":810,"o":"m 346 0 l 76 0 l 76 764 l 313 764 l 313 669 l 407 764 l 658 764 l 810 613 l 810 0 l 540 0 l 540 514 l 378 514 l 346 486 l 346 0 m 674 1004 l 493 824 l 393 824 l 213 1004 l 213 1101 l 418 1013 l 468 1013 l 674 1101 l 674 1004 z "},"ņ":{"ha":886,"x_min":76,"x_max":810,"o":"m 346 0 l 76 0 l 76 764 l 313 764 l 313 669 l 407 764 l 658 764 l 810 613 l 810 0 l 540 0 l 540 514 l 378 514 l 346 486 l 346 0 m 326 -83 l 554 -83 l 554 -211 l 397 -365 l 278 -365 l 326 -201 l 326 -83 z "},"ñ":{"ha":886,"x_min":76,"x_max":810,"o":"m 346 0 l 76 0 l 76 764 l 313 764 l 313 669 l 407 764 l 658 764 l 810 613 l 810 0 l 540 0 l 540 514 l 378 514 l 346 486 l 346 0 m 353 847 l 197 847 l 197 1001 l 268 1072 l 425 1072 l 511 986 l 533 986 l 533 1072 l 689 1072 l 689 918 l 618 847 l 461 847 l 375 933 l 353 933 l 353 847 z "},"o":{"ha":872,"x_min":69,"x_max":803,"o":"m 221 764 l 651 764 l 803 613 l 803 151 l 651 0 l 221 0 l 69 151 l 69 613 l 221 764 m 533 242 l 533 522 l 339 522 l 339 242 l 533 242 z "},"ó":{"ha":872,"x_min":69,"x_max":803,"o":"m 221 764 l 651 764 l 803 613 l 803 151 l 651 0 l 221 0 l 69 151 l 69 613 l 221 764 m 533 242 l 533 522 l 339 522 l 339 242 l 533 242 m 658 1068 l 658 975 l 450 843 l 283 843 l 374 989 l 374 1068 l 658 1068 z "},"ô":{"ha":872,"x_min":69,"x_max":803,"o":"m 221 764 l 651 764 l 803 613 l 803 151 l 651 0 l 221 0 l 69 151 l 69 613 l 221 764 m 533 242 l 533 522 l 339 522 l 339 242 l 533 242 m 411 899 l 206 810 l 206 907 l 386 1088 l 486 1088 l 667 907 l 667 810 l 461 899 l 411 899 z "},"ö":{"ha":872,"x_min":69,"x_max":803,"o":"m 221 764 l 651 764 l 803 613 l 803 151 l 651 0 l 221 0 l 69 151 l 69 613 l 221 764 m 533 242 l 533 522 l 339 522 l 339 242 l 533 242 m 165 1054 l 388 1054 l 388 847 l 165 847 l 165 1054 m 485 1054 l 707 1054 l 707 847 l 485 847 l 485 1054 z "},"ò":{"ha":872,"x_min":69,"x_max":803,"o":"m 221 764 l 651 764 l 803 613 l 803 151 l 651 0 l 221 0 l 69 151 l 69 613 l 221 764 m 533 242 l 533 522 l 339 522 l 339 242 l 533 242 m 422 843 l 214 975 l 214 1068 l 499 1068 l 499 989 l 589 843 l 422 843 z "},"ő":{"ha":872,"x_min":69,"x_max":803,"o":"m 221 764 l 651 764 l 803 613 l 803 151 l 651 0 l 221 0 l 69 151 l 69 613 l 221 764 m 533 242 l 533 522 l 339 522 l 339 242 l 533 242 m 464 1068 l 464 975 l 332 843 l 193 843 l 249 989 l 249 1068 l 464 1068 m 749 1068 l 749 975 l 617 843 l 478 843 l 533 989 l 533 1068 l 749 1068 z "},"ō":{"ha":872,"x_min":69,"x_max":803,"o":"m 221 764 l 651 764 l 803 613 l 803 151 l 651 0 l 221 0 l 69 151 l 69 613 l 221 764 m 533 242 l 533 522 l 339 522 l 339 242 l 533 242 m 222 872 l 222 1033 l 650 1033 l 650 872 l 222 872 z "},"ø":{"ha":900,"x_min":69,"x_max":831,"o":"m 340 0 l 306 -68 l 142 -68 l 192 29 l 69 151 l 69 613 l 221 764 l 561 764 l 594 832 l 758 832 l 708 735 l 831 613 l 831 151 l 679 0 l 340 0 m 449 531 l 325 531 l 325 279 l 449 531 m 453 235 l 575 235 l 575 485 l 453 235 z "},"õ":{"ha":872,"x_min":69,"x_max":803,"o":"m 221 764 l 651 764 l 803 613 l 803 151 l 651 0 l 221 0 l 69 151 l 69 613 l 221 764 m 533 242 l 533 522 l 339 522 l 339 242 l 533 242 m 346 847 l 190 847 l 190 1001 l 261 1072 l 418 1072 l 504 986 l 526 986 l 526 1072 l 682 1072 l 682 918 l 611 847 l 454 847 l 368 933 l 346 933 l 346 847 z "},"œ":{"ha":1306,"x_min":69,"x_max":1243,"o":"m 585 0 l 221 0 l 69 151 l 69 613 l 221 764 l 585 764 l 668 681 l 751 764 l 1092 764 l 1243 613 l 1243 333 l 797 333 l 797 214 l 985 214 l 985 275 l 1243 275 l 1243 151 l 1092 0 l 751 0 l 668 83 l 585 0 m 985 550 l 797 550 l 797 453 l 985 453 l 985 550 m 533 242 l 533 522 l 339 522 l 339 242 l 533 242 z "},"p":{"ha":893,"x_min":90,"x_max":824,"o":"m 360 -292 l 90 -292 l 90 764 l 326 764 l 326 669 l 421 764 l 672 764 l 824 613 l 824 151 l 672 0 l 360 0 l 360 -292 m 554 514 l 392 514 l 360 486 l 360 242 l 554 242 l 554 514 z "},"þ":{"ha":879,"x_min":76,"x_max":810,"o":"m 346 -292 l 76 -292 l 76 1008 l 340 1008 l 340 683 l 421 764 l 658 764 l 810 613 l 810 151 l 658 0 l 346 0 l 346 -292 m 540 514 l 378 514 l 346 486 l 346 242 l 540 242 l 540 514 z "},"q":{"ha":907,"x_min":69,"x_max":803,"o":"m 803 764 l 803 -292 l 533 -292 l 533 0 l 221 0 l 69 151 l 69 613 l 221 764 l 472 764 l 567 669 l 567 764 l 803 764 m 339 514 l 339 242 l 533 242 l 533 486 l 501 514 l 339 514 z "},"r":{"ha":622,"x_min":76,"x_max":588,"o":"m 346 0 l 76 0 l 76 764 l 313 764 l 313 656 l 421 764 l 588 764 l 588 506 l 378 506 l 346 478 l 346 0 z "},"ŕ":{"ha":622,"x_min":76,"x_max":588,"o":"m 346 0 l 76 0 l 76 764 l 313 764 l 313 656 l 421 764 l 588 764 l 588 506 l 378 506 l 346 478 l 346 0 m 554 1068 l 554 975 l 346 843 l 179 843 l 269 989 l 269 1068 l 554 1068 z "},"ř":{"ha":622,"x_min":76,"x_max":588,"o":"m 346 0 l 76 0 l 76 764 l 313 764 l 313 656 l 421 764 l 588 764 l 588 506 l 378 506 l 346 478 l 346 0 m 563 1004 l 382 824 l 282 824 l 101 1004 l 101 1101 l 307 1013 l 357 1013 l 563 1101 l 563 1004 z "},"ŗ":{"ha":622,"x_min":47,"x_max":588,"o":"m 346 0 l 76 0 l 76 764 l 313 764 l 313 656 l 421 764 l 588 764 l 588 506 l 378 506 l 346 478 l 346 0 m 96 -83 l 324 -83 l 324 -211 l 167 -365 l 47 -365 l 96 -201 l 96 -83 z "},"s":{"ha":818,"x_min":49,"x_max":756,"o":"m 489 192 l 489 236 l 49 403 l 49 613 l 200 764 l 590 764 l 742 613 l 742 515 l 492 515 l 492 572 l 315 572 l 315 528 l 756 361 l 756 151 l 604 0 l 200 0 l 49 151 l 49 249 l 299 249 l 299 192 l 489 192 z "},"ś":{"ha":818,"x_min":49,"x_max":756,"o":"m 489 192 l 489 236 l 49 403 l 49 613 l 200 764 l 590 764 l 742 613 l 742 515 l 492 515 l 492 572 l 315 572 l 315 528 l 756 361 l 756 151 l 604 0 l 200 0 l 49 151 l 49 249 l 299 249 l 299 192 l 489 192 m 624 1068 l 624 975 l 415 843 l 249 843 l 339 989 l 339 1068 l 624 1068 z "},"š":{"ha":818,"x_min":49,"x_max":756,"o":"m 489 192 l 489 236 l 49 403 l 49 613 l 200 764 l 590 764 l 742 613 l 742 515 l 492 515 l 492 572 l 315 572 l 315 528 l 756 361 l 756 151 l 604 0 l 200 0 l 49 151 l 49 249 l 299 249 l 299 192 l 489 192 m 632 1004 l 451 824 l 351 824 l 171 1004 l 171 1101 l 376 1013 l 426 1013 l 632 1101 l 632 1004 z "},"ş":{"ha":818,"x_min":49,"x_max":756,"o":"m 489 192 l 489 236 l 49 403 l 49 613 l 200 764 l 590 764 l 742 613 l 742 515 l 492 515 l 492 572 l 315 572 l 315 528 l 756 361 l 756 151 l 604 0 l 200 0 l 49 151 l 49 249 l 299 249 l 299 192 l 489 192 m 526 -244 l 456 -315 l 260 -315 l 260 -278 l 346 -192 l 346 -160 l 274 -87 l 419 58 l 531 58 l 428 -44 l 526 -143 l 526 -244 z "},"ș":{"ha":818,"x_min":49,"x_max":756,"o":"m 489 192 l 489 236 l 49 403 l 49 613 l 200 764 l 590 764 l 742 613 l 742 515 l 492 515 l 492 572 l 315 572 l 315 528 l 756 361 l 756 151 l 604 0 l 200 0 l 49 151 l 49 249 l 299 249 l 299 192 l 489 192 m 285 -83 l 513 -83 l 513 -211 l 356 -365 l 236 -365 l 285 -201 l 285 -83 z "},"ß":{"ha":1022,"x_min":76,"x_max":1008,"o":"m 346 0 l 76 0 l 76 890 l 228 1042 l 742 1042 l 893 890 l 893 707 l 769 583 l 769 542 l 1008 303 l 1008 171 l 838 0 l 553 0 l 401 151 l 401 249 l 610 249 l 610 192 l 739 192 l 739 257 l 506 490 l 506 613 l 624 731 l 624 833 l 346 833 l 346 0 z "},"t":{"ha":638,"x_min":7,"x_max":575,"o":"m 575 0 l 253 0 l 101 151 l 101 556 l 7 556 l 7 764 l 101 764 l 101 938 l 371 938 l 371 764 l 569 764 l 569 556 l 371 556 l 371 250 l 575 250 l 575 0 z "},"ť":{"ha":638,"x_min":7,"x_max":672,"o":"m 575 0 l 253 0 l 101 151 l 101 556 l 7 556 l 7 764 l 101 764 l 101 938 l 371 938 l 371 764 l 569 764 l 569 556 l 371 556 l 371 250 l 575 250 l 575 0 m 672 1139 l 672 1046 l 539 838 l 438 838 l 467 1060 l 467 1139 l 672 1139 z "},"ţ":{"ha":638,"x_min":7,"x_max":575,"o":"m 575 0 l 253 0 l 101 151 l 101 556 l 7 556 l 7 764 l 101 764 l 101 938 l 371 938 l 371 764 l 569 764 l 569 556 l 371 556 l 371 250 l 575 250 l 575 0 m 242 -83 l 469 -83 l 469 -211 l 313 -365 l 193 -365 l 242 -201 l 242 -83 z "},"ț":{"ha":638,"x_min":7,"x_max":575,"o":"m 575 0 l 253 0 l 101 151 l 101 556 l 7 556 l 7 764 l 101 764 l 101 938 l 371 938 l 371 764 l 569 764 l 569 556 l 371 556 l 371 250 l 575 250 l 575 0 m 242 -83 l 469 -83 l 469 -211 l 313 -365 l 193 -365 l 242 -201 l 242 -83 z "},"u":{"ha":881,"x_min":76,"x_max":804,"o":"m 474 0 l 228 0 l 76 151 l 76 764 l 346 764 l 346 250 l 503 250 l 535 278 l 535 764 l 804 764 l 804 0 l 568 0 l 568 94 l 474 0 z "},"ú":{"ha":881,"x_min":76,"x_max":804,"o":"m 474 0 l 228 0 l 76 151 l 76 764 l 346 764 l 346 250 l 503 250 l 535 278 l 535 764 l 804 764 l 804 0 l 568 0 l 568 94 l 474 0 m 663 1068 l 663 975 l 454 843 l 288 843 l 378 989 l 378 1068 l 663 1068 z "},"û":{"ha":881,"x_min":76,"x_max":804,"o":"m 474 0 l 228 0 l 76 151 l 76 764 l 346 764 l 346 250 l 503 250 l 535 278 l 535 764 l 804 764 l 804 0 l 568 0 l 568 94 l 474 0 m 415 899 l 210 810 l 210 907 l 390 1088 l 490 1088 l 671 907 l 671 810 l 465 899 l 415 899 z "},"ü":{"ha":881,"x_min":76,"x_max":804,"o":"m 474 0 l 228 0 l 76 151 l 76 764 l 346 764 l 346 250 l 503 250 l 535 278 l 535 764 l 804 764 l 804 0 l 568 0 l 568 94 l 474 0 m 169 1054 l 392 1054 l 392 847 l 169 847 l 169 1054 m 489 1054 l 711 1054 l 711 847 l 489 847 l 489 1054 z "},"ù":{"ha":881,"x_min":76,"x_max":804,"o":"m 474 0 l 228 0 l 76 151 l 76 764 l 346 764 l 346 250 l 503 250 l 535 278 l 535 764 l 804 764 l 804 0 l 568 0 l 568 94 l 474 0 m 426 843 l 218 975 l 218 1068 l 503 1068 l 503 989 l 593 843 l 426 843 z "},"ű":{"ha":881,"x_min":76,"x_max":804,"o":"m 474 0 l 228 0 l 76 151 l 76 764 l 346 764 l 346 250 l 503 250 l 535 278 l 535 764 l 804 764 l 804 0 l 568 0 l 568 94 l 474 0 m 468 1068 l 468 975 l 336 843 l 197 843 l 253 989 l 253 1068 l 468 1068 m 753 1068 l 753 975 l 621 843 l 482 843 l 538 989 l 538 1068 l 753 1068 z "},"ū":{"ha":881,"x_min":76,"x_max":804,"o":"m 474 0 l 228 0 l 76 151 l 76 764 l 346 764 l 346 250 l 503 250 l 535 278 l 535 764 l 804 764 l 804 0 l 568 0 l 568 94 l 474 0 m 226 872 l 226 1033 l 654 1033 l 654 872 l 226 872 z "},"ų":{"ha":881,"x_min":76,"x_max":804,"o":"m 474 0 l 228 0 l 76 151 l 76 764 l 346 764 l 346 250 l 503 250 l 535 278 l 535 764 l 804 764 l 804 0 l 568 0 l 568 94 l 474 0 m 669 0 l 804 0 l 718 -86 l 718 -158 l 804 -158 l 804 -332 l 622 -332 l 551 -261 l 551 -118 l 669 0 z "},"ů":{"ha":881,"x_min":76,"x_max":804,"o":"m 474 0 l 228 0 l 76 151 l 76 764 l 346 764 l 346 250 l 503 250 l 535 278 l 535 764 l 804 764 l 804 0 l 568 0 l 568 94 l 474 0 m 304 1158 l 576 1158 l 661 1074 l 661 932 l 576 847 l 304 847 l 219 932 l 219 1074 l 304 1158 m 508 953 l 508 1053 l 372 1053 l 372 953 l 508 953 z "},"ũ":{"ha":881,"x_min":76,"x_max":804,"o":"m 474 0 l 228 0 l 76 151 l 76 764 l 346 764 l 346 250 l 503 250 l 535 278 l 535 764 l 804 764 l 804 0 l 568 0 l 568 94 l 474 0 m 350 847 l 194 847 l 194 1001 l 265 1072 l 422 1072 l 508 986 l 531 986 l 531 1072 l 686 1072 l 686 918 l 615 847 l 458 847 l 372 933 l 350 933 l 350 847 z "},"v":{"ha":813,"x_min":28,"x_max":785,"o":"m 560 0 l 253 0 l 28 597 l 28 764 l 297 764 l 297 639 l 407 283 l 515 639 l 515 764 l 785 764 l 785 597 l 560 0 z "},"w":{"ha":1244,"x_min":28,"x_max":1217,"o":"m 518 0 l 225 0 l 28 597 l 28 764 l 297 764 l 297 639 l 392 292 l 488 639 l 488 764 l 757 764 l 757 639 l 853 292 l 947 639 l 947 764 l 1217 764 l 1217 597 l 1019 0 l 726 0 l 622 365 l 518 0 z "},"ẃ":{"ha":1244,"x_min":28,"x_max":1217,"o":"m 518 0 l 225 0 l 28 597 l 28 764 l 297 764 l 297 639 l 392 292 l 488 639 l 488 764 l 757 764 l 757 639 l 853 292 l 947 639 l 947 764 l 1217 764 l 1217 597 l 1019 0 l 726 0 l 622 365 l 518 0 m 844 1068 l 844 975 l 636 843 l 469 843 l 560 989 l 560 1068 l 844 1068 z "},"ŵ":{"ha":1244,"x_min":28,"x_max":1217,"o":"m 518 0 l 225 0 l 28 597 l 28 764 l 297 764 l 297 639 l 392 292 l 488 639 l 488 764 l 757 764 l 757 639 l 853 292 l 947 639 l 947 764 l 1217 764 l 1217 597 l 1019 0 l 726 0 l 622 365 l 518 0 m 597 899 l 392 810 l 392 907 l 572 1088 l 672 1088 l 853 907 l 853 810 l 647 899 l 597 899 z "},"ẅ":{"ha":1244,"x_min":28,"x_max":1217,"o":"m 518 0 l 225 0 l 28 597 l 28 764 l 297 764 l 297 639 l 392 292 l 488 639 l 488 764 l 757 764 l 757 639 l 853 292 l 947 639 l 947 764 l 1217 764 l 1217 597 l 1019 0 l 726 0 l 622 365 l 518 0 m 351 1054 l 574 1054 l 574 847 l 351 847 l 351 1054 m 671 1054 l 893 1054 l 893 847 l 671 847 l 671 1054 z "},"ẁ":{"ha":1244,"x_min":28,"x_max":1217,"o":"m 518 0 l 225 0 l 28 597 l 28 764 l 297 764 l 297 639 l 392 292 l 488 639 l 488 764 l 757 764 l 757 639 l 853 292 l 947 639 l 947 764 l 1217 764 l 1217 597 l 1019 0 l 726 0 l 622 365 l 518 0 m 608 843 l 400 975 l 400 1068 l 685 1068 l 685 989 l 775 843 l 608 843 z "},"x":{"ha":826,"x_min":42,"x_max":785,"o":"m 311 0 l 42 0 l 42 181 l 250 385 l 49 583 l 49 764 l 318 764 l 318 639 l 414 546 l 508 639 l 508 764 l 778 764 l 778 583 l 576 385 l 785 181 l 785 0 l 515 0 l 515 125 l 414 225 l 311 125 l 311 0 z "},"y":{"ha":894,"x_min":69,"x_max":797,"o":"m 72 -12 l 328 -12 l 328 -69 l 528 -69 l 528 56 l 221 56 l 69 207 l 69 764 l 339 764 l 339 283 l 528 283 l 528 764 l 797 764 l 797 -140 l 646 -292 l 224 -292 l 72 -140 l 72 -12 z "},"ý":{"ha":894,"x_min":69,"x_max":797,"o":"m 72 -12 l 328 -12 l 328 -69 l 528 -69 l 528 56 l 221 56 l 69 207 l 69 764 l 339 764 l 339 283 l 528 283 l 528 764 l 797 764 l 797 -140 l 646 -292 l 224 -292 l 72 -140 l 72 -12 m 656 1068 l 656 975 l 447 843 l 281 843 l 371 989 l 371 1068 l 656 1068 z "},"ŷ":{"ha":894,"x_min":69,"x_max":797,"o":"m 72 -12 l 328 -12 l 328 -69 l 528 -69 l 528 56 l 221 56 l 69 207 l 69 764 l 339 764 l 339 283 l 528 283 l 528 764 l 797 764 l 797 -140 l 646 -292 l 224 -292 l 72 -140 l 72 -12 m 408 899 l 203 810 l 203 907 l 383 1088 l 483 1088 l 664 907 l 664 810 l 458 899 l 408 899 z "},"ÿ":{"ha":894,"x_min":69,"x_max":797,"o":"m 72 -12 l 328 -12 l 328 -69 l 528 -69 l 528 56 l 221 56 l 69 207 l 69 764 l 339 764 l 339 283 l 528 283 l 528 764 l 797 764 l 797 -140 l 646 -292 l 224 -292 l 72 -140 l 72 -12 m 163 1054 l 385 1054 l 385 847 l 163 847 l 163 1054 m 482 1054 l 704 1054 l 704 847 l 482 847 l 482 1054 z "},"ỳ":{"ha":894,"x_min":69,"x_max":797,"o":"m 72 -12 l 328 -12 l 328 -69 l 528 -69 l 528 56 l 221 56 l 69 207 l 69 764 l 339 764 l 339 283 l 528 283 l 528 764 l 797 764 l 797 -140 l 646 -292 l 224 -292 l 72 -140 l 72 -12 m 419 843 l 211 975 l 211 1068 l 496 1068 l 496 989 l 586 843 l 419 843 z "},"ỹ":{"ha":894,"x_min":69,"x_max":797,"o":"m 72 -12 l 328 -12 l 328 -69 l 528 -69 l 528 56 l 221 56 l 69 207 l 69 764 l 339 764 l 339 283 l 528 283 l 528 764 l 797 764 l 797 -140 l 646 -292 l 224 -292 l 72 -140 l 72 -12 m 343 847 l 188 847 l 188 1001 l 258 1072 l 415 1072 l 501 986 l 524 986 l 524 1072 l 679 1072 l 679 918 l 608 847 l 451 847 l 365 933 l 343 933 l 343 847 z "},"z":{"ha":758,"x_min":69,"x_max":689,"o":"m 689 0 l 69 0 l 69 257 l 376 531 l 376 556 l 74 556 l 74 764 l 674 764 l 674 504 l 364 236 l 364 208 l 689 208 l 689 0 z "},"ź":{"ha":758,"x_min":69,"x_max":689,"o":"m 689 0 l 69 0 l 69 257 l 376 531 l 376 556 l 74 556 l 74 764 l 674 764 l 674 504 l 364 236 l 364 208 l 689 208 l 689 0 m 601 1068 l 601 975 l 393 843 l 226 843 l 317 989 l 317 1068 l 601 1068 z "},"ž":{"ha":758,"x_min":69,"x_max":689,"o":"m 689 0 l 69 0 l 69 257 l 376 531 l 376 556 l 74 556 l 74 764 l 674 764 l 674 504 l 364 236 l 364 208 l 689 208 l 689 0 m 610 1004 l 429 824 l 329 824 l 149 1004 l 149 1101 l 354 1013 l 404 1013 l 610 1101 l 610 1004 z "},"ż":{"ha":758,"x_min":69,"x_max":689,"o":"m 689 0 l 69 0 l 69 257 l 376 531 l 376 556 l 74 556 l 74 764 l 674 764 l 674 504 l 364 236 l 364 208 l 689 208 l 689 0 m 261 1068 l 497 1068 l 497 847 l 261 847 l 261 1068 z "},"ﬀ":{"ha":1068,"x_min":21,"x_max":1054,"o":"m 399 0 l 129 0 l 129 556 l 21 556 l 21 764 l 129 764 l 129 890 l 281 1042 l 549 1042 l 549 833 l 399 833 l 399 764 l 621 764 l 621 890 l 772 1042 l 1054 1042 l 1054 833 l 890 833 l 890 764 l 1040 764 l 1040 556 l 890 556 l 890 0 l 621 0 l 621 556 l 399 556 l 399 0 z "},"ﬁ":{"ha":981,"x_min":35,"x_max":904,"o":"m 413 0 l 143 0 l 143 556 l 35 556 l 35 764 l 143 764 l 143 890 l 294 1042 l 904 1042 l 904 842 l 413 842 l 413 764 l 546 764 l 546 556 l 413 556 l 413 0 m 904 0 l 635 0 l 635 764 l 904 764 l 904 0 z "},"ﬂ":{"ha":981,"x_min":35,"x_max":904,"o":"m 413 0 l 143 0 l 143 556 l 35 556 l 35 764 l 143 764 l 143 890 l 294 1042 l 904 1042 l 904 0 l 635 0 l 635 842 l 413 842 l 413 764 l 546 764 l 546 556 l 413 556 l 413 0 z "},"ª":{"ha":574,"x_min":69,"x_max":504,"o":"m 504 885 l 504 532 l 376 532 l 376 586 l 322 532 l 157 532 l 69 619 l 69 699 l 157 786 l 353 786 l 353 840 l 225 840 l 225 817 l 76 817 l 76 885 l 164 972 l 418 972 l 504 885 m 353 711 l 221 711 l 221 650 l 335 650 l 353 665 l 353 711 m 69 300 l 69 467 l 504 467 l 504 300 l 69 300 z "},"º":{"ha":574,"x_min":69,"x_max":504,"o":"m 157 972 l 417 972 l 504 885 l 504 619 l 417 532 l 157 532 l 69 619 l 69 885 l 157 972 m 349 671 l 349 833 l 225 833 l 225 671 l 349 671 m 69 300 l 69 467 l 504 467 l 504 300 l 69 300 z "},"Δ":{"ha":1056,"x_min":97,"x_max":958,"o":"m 958 0 l 97 0 l 97 243 l 349 972 l 707 972 l 958 246 l 958 0 m 528 713 l 382 265 l 382 236 l 674 236 l 674 265 l 528 713 z "},"Ω":{"ha":1078,"x_min":83,"x_max":994,"o":"m 419 0 l 83 0 l 83 250 l 251 250 l 251 289 l 89 451 l 89 821 l 240 972 l 838 972 l 989 821 l 989 451 l 826 289 l 826 250 l 994 250 l 994 0 l 658 0 l 590 68 l 590 326 l 711 447 l 711 722 l 367 722 l 367 447 l 488 326 l 488 68 l 419 0 z "},"μ":{"ha":881,"x_min":76,"x_max":804,"o":"m 346 -264 l 76 -264 l 76 764 l 346 764 l 346 250 l 503 250 l 535 278 l 535 764 l 804 764 l 804 0 l 568 0 l 568 94 l 474 0 l 346 0 l 346 -264 z "},"π":{"ha":1054,"x_min":56,"x_max":971,"o":"m 433 0 l 164 0 l 164 514 l 56 514 l 56 764 l 971 764 l 971 514 l 856 514 l 856 250 l 971 250 l 971 0 l 738 0 l 586 151 l 586 514 l 433 514 l 433 0 z "},"⁰":{"ha":706,"x_min":76,"x_max":629,"o":"m 526 367 l 179 367 l 76 469 l 76 869 l 179 972 l 526 972 l 629 869 l 629 469 l 526 367 m 299 797 l 299 542 l 407 542 l 407 797 l 299 797 z "},"¹":{"ha":494,"x_min":35,"x_max":460,"o":"m 460 367 l 42 367 l 42 533 l 144 533 l 144 778 l 35 778 l 35 869 l 203 972 l 367 972 l 367 533 l 460 533 l 460 367 z "},"²":{"ha":651,"x_min":56,"x_max":596,"o":"m 596 367 l 56 367 l 56 614 l 158 717 l 378 717 l 378 813 l 275 813 l 275 765 l 60 765 l 60 869 l 163 972 l 490 972 l 593 869 l 593 679 l 490 576 l 271 576 l 271 526 l 596 526 l 596 367 z "},"³":{"ha":643,"x_min":42,"x_max":588,"o":"m 581 869 l 581 736 l 519 675 l 588 607 l 588 469 l 485 367 l 143 367 l 42 469 l 42 558 l 257 558 l 257 522 l 372 522 l 372 599 l 358 611 l 231 611 l 231 732 l 351 732 l 365 746 l 365 817 l 257 817 l 257 781 l 42 781 l 42 869 l 144 972 l 478 972 l 581 869 z "},"⁴":{"ha":650,"x_min":28,"x_max":622,"o":"m 346 468 l 28 468 l 28 614 l 224 921 l 224 972 l 438 972 l 438 904 l 256 614 l 351 614 l 351 692 l 558 692 l 558 614 l 622 614 l 622 468 l 561 468 l 561 367 l 346 367 l 346 468 z "},"⁸":{"ha":667,"x_min":56,"x_max":611,"o":"m 604 869 l 604 736 l 543 675 l 611 607 l 611 469 l 508 367 l 158 367 l 56 469 l 56 607 l 124 675 l 63 736 l 63 869 l 165 972 l 501 972 l 604 869 m 389 744 l 389 819 l 278 819 l 278 744 l 292 731 l 375 731 l 389 744 m 271 593 l 271 519 l 396 519 l 396 593 l 382 607 l 285 607 l 271 593 z "},"⁄":{"ha":794,"x_min":56,"x_max":739,"o":"m 292 0 l 56 0 l 503 972 l 739 972 l 292 0 z "},"½":{"ha":1468,"x_min":56,"x_max":1413,"o":"m 590 0 l 354 0 l 801 972 l 1038 972 l 590 0 m 481 367 l 63 367 l 63 533 l 165 533 l 165 778 l 56 778 l 56 869 l 224 972 l 388 972 l 388 533 l 481 533 l 481 367 m 1413 0 l 872 0 l 872 247 l 975 350 l 1194 350 l 1194 446 l 1092 446 l 1092 399 l 876 399 l 876 503 l 979 606 l 1307 606 l 1410 503 l 1410 313 l 1307 210 l 1088 210 l 1088 160 l 1413 160 l 1413 0 z "},"¼":{"ha":1401,"x_min":56,"x_max":1374,"o":"m 590 0 l 354 0 l 801 972 l 1038 972 l 590 0 m 481 367 l 63 367 l 63 533 l 165 533 l 165 778 l 56 778 l 56 869 l 224 972 l 388 972 l 388 533 l 481 533 l 481 367 m 1097 101 l 779 101 l 779 247 l 975 554 l 975 606 l 1189 606 l 1189 538 l 1007 247 l 1103 247 l 1103 325 l 1310 325 l 1310 247 l 1374 247 l 1374 101 l 1313 101 l 1313 0 l 1097 0 l 1097 101 z "},"¾":{"ha":1488,"x_min":56,"x_max":1460,"o":"m 676 0 l 440 0 l 888 972 l 1124 972 l 676 0 m 594 869 l 594 736 l 533 675 l 601 607 l 601 469 l 499 367 l 157 367 l 56 469 l 56 558 l 271 558 l 271 522 l 386 522 l 386 599 l 372 611 l 244 611 l 244 732 l 365 732 l 379 746 l 379 817 l 271 817 l 271 781 l 56 781 l 56 869 l 158 972 l 492 972 l 594 869 m 1181 101 l 865 101 l 865 247 l 1061 554 l 1061 606 l 1275 606 l 1275 538 l 1093 247 l 1189 247 l 1189 325 l 1396 325 l 1396 247 l 1460 247 l 1460 101 l 1396 101 l 1396 0 l 1181 0 l 1181 101 z "},"⅛":{"ha":1481,"x_min":56,"x_max":1425,"o":"m 590 0 l 354 0 l 801 972 l 1038 972 l 590 0 m 481 367 l 63 367 l 63 533 l 165 533 l 165 778 l 56 778 l 56 869 l 224 972 l 388 972 l 388 533 l 481 533 l 481 367 m 1418 503 l 1418 369 l 1357 308 l 1425 240 l 1425 103 l 1322 0 l 972 0 l 869 103 l 869 240 l 938 308 l 876 369 l 876 503 l 979 606 l 1315 606 l 1418 503 m 1203 378 l 1203 453 l 1092 453 l 1092 378 l 1106 364 l 1189 364 l 1203 378 m 1085 226 l 1085 153 l 1210 153 l 1210 226 l 1196 240 l 1099 240 l 1085 226 z "},".":{"ha":472,"x_min":97,"x_max":375,"o":"m 97 267 l 375 267 l 375 0 l 97 0 l 97 267 z "},",":{"ha":472,"x_min":29,"x_max":375,"o":"m 97 267 l 375 267 l 375 24 l 178 -278 l 29 -278 l 97 38 l 97 267 z "},":":{"ha":500,"x_min":111,"x_max":389,"o":"m 111 267 l 389 267 l 389 0 l 111 0 l 111 267 m 111 764 l 389 764 l 389 497 l 111 497 l 111 764 z "},";":{"ha":500,"x_min":43,"x_max":389,"o":"m 111 764 l 389 764 l 389 497 l 111 497 l 111 764 m 111 267 l 389 267 l 389 24 l 192 -278 l 43 -278 l 111 38 l 111 267 z "},"…":{"ha":1319,"x_min":97,"x_max":1222,"o":"m 521 267 l 799 267 l 799 0 l 521 0 l 521 267 m 944 267 l 1222 267 l 1222 0 l 944 0 l 944 267 m 97 267 l 375 267 l 375 0 l 97 0 l 97 267 z "},"!":{"ha":472,"x_min":90,"x_max":382,"o":"m 340 363 l 132 363 l 90 788 l 90 972 l 382 972 l 382 788 l 340 363 m 97 267 l 375 267 l 375 0 l 97 0 l 97 267 z "},"¡":{"ha":472,"x_min":90,"x_max":382,"o":"m 90 -24 l 132 401 l 340 401 l 382 -24 l 382 -208 l 90 -208 l 90 -24 m 375 764 l 375 497 l 97 497 l 97 764 l 375 764 z "},"?":{"ha":778,"x_min":28,"x_max":750,"o":"m 507 363 l 251 363 l 251 438 l 481 667 l 481 729 l 297 729 l 297 638 l 28 638 l 28 821 l 179 972 l 599 972 l 750 821 l 750 606 l 507 363 m 243 267 l 521 267 l 521 0 l 243 0 l 243 267 z "},"¿":{"ha":778,"x_min":28,"x_max":750,"o":"m 271 401 l 526 401 l 526 326 l 297 97 l 297 35 l 481 35 l 481 126 l 750 126 l 750 -57 l 599 -208 l 179 -208 l 28 -57 l 28 158 l 271 401 m 535 497 l 257 497 l 257 764 l 535 764 l 535 497 z "},"·":{"ha":556,"x_min":139,"x_max":417,"o":"m 139 614 l 417 614 l 417 347 l 139 347 l 139 614 z "},"•":{"ha":771,"x_min":167,"x_max":604,"o":"m 167 686 l 604 686 l 604 275 l 167 275 l 167 686 z "},"*":{"ha":733,"x_min":58,"x_max":675,"o":"m 257 925 l 257 1063 l 476 1063 l 476 924 l 607 968 l 675 758 l 544 717 l 625 604 l 447 476 l 367 586 l 286 475 l 108 604 l 189 715 l 58 758 l 126 967 l 257 925 z "},"#":{"ha":1178,"x_min":56,"x_max":1122,"o":"m 388 0 l 151 0 l 186 174 l 56 174 l 56 368 l 225 368 l 272 604 l 117 604 l 117 799 l 311 799 l 346 972 l 582 972 l 547 799 l 756 799 l 790 972 l 1026 972 l 992 799 l 1122 799 l 1122 604 l 953 604 l 906 368 l 1061 368 l 1061 174 l 867 174 l 832 0 l 596 0 l 631 174 l 422 174 l 388 0 m 508 604 l 461 368 l 669 368 l 717 604 l 508 604 z "},"/":{"ha":603,"x_min":40,"x_max":583,"o":"m 299 -165 l 40 -165 l 325 1056 l 583 1056 l 299 -165 z "},"\\":{"ha":603,"x_min":19,"x_max":563,"o":"m 563 -165 l 304 -165 l 19 1056 l 278 1056 l 563 -165 z "},"(":{"ha":615,"x_min":139,"x_max":601,"o":"m 601 -250 l 324 -250 l 139 -65 l 139 885 l 324 1069 l 601 1069 l 601 847 l 433 847 l 403 817 l 403 3 l 433 -28 l 601 -28 l 601 -250 z "},")":{"ha":615,"x_min":14,"x_max":476,"o":"m 292 -250 l 14 -250 l 14 -28 l 182 -28 l 213 3 l 213 817 l 182 847 l 14 847 l 14 1069 l 292 1069 l 476 885 l 476 -65 l 292 -250 z "},"{":{"ha":619,"x_min":42,"x_max":606,"o":"m 606 -249 l 322 -249 l 171 -97 l 171 254 l 42 383 l 42 436 l 171 565 l 171 917 l 322 1068 l 606 1068 l 606 846 l 435 846 l 435 528 l 317 410 l 435 292 l 435 -26 l 606 -26 l 606 -249 z "},"}":{"ha":619,"x_min":14,"x_max":578,"o":"m 297 -249 l 14 -249 l 14 -26 l 185 -26 l 185 292 l 303 410 l 185 528 l 185 846 l 14 846 l 14 1068 l 297 1068 l 449 917 l 449 565 l 578 436 l 578 383 l 449 254 l 449 -97 l 297 -249 z "},"[":{"ha":611,"x_min":139,"x_max":597,"o":"m 597 -250 l 139 -250 l 139 1069 l 597 1069 l 597 847 l 403 847 l 403 -28 l 597 -28 l 597 -250 z "},"]":{"ha":611,"x_min":14,"x_max":472,"o":"m 472 1069 l 472 -250 l 14 -250 l 14 -28 l 208 -28 l 208 847 l 14 847 l 14 1069 l 472 1069 z "},"-":{"ha":665,"x_min":56,"x_max":610,"o":"m 56 354 l 56 604 l 610 604 l 610 354 l 56 354 z "},"­":{"ha":665,"x_min":56,"x_max":610,"o":"m 56 354 l 56 604 l 610 604 l 610 354 l 56 354 z "},"–":{"ha":874,"x_min":56,"x_max":818,"o":"m 56 354 l 56 604 l 818 604 l 818 354 l 56 354 z "},"—":{"ha":1235,"x_min":56,"x_max":1179,"o":"m 56 354 l 56 604 l 1179 604 l 1179 354 l 56 354 z "},"_":{"ha":903,"x_min":56,"x_max":847,"o":"m 56 -250 l 56 0 l 847 0 l 847 -250 l 56 -250 z "},"‚":{"ha":461,"x_min":29,"x_max":364,"o":"m 92 196 l 364 196 l 364 1 l 172 -240 l 29 -240 l 92 13 l 92 196 z "},"„":{"ha":839,"x_min":29,"x_max":742,"o":"m 92 196 l 364 196 l 364 1 l 172 -240 l 29 -240 l 92 13 l 92 196 m 469 196 l 742 196 l 742 1 l 550 -240 l 407 -240 l 469 13 l 469 196 z "},"“":{"ha":824,"x_min":69,"x_max":782,"o":"m 342 626 l 69 626 l 69 821 l 261 1063 l 404 1063 l 342 810 l 342 626 m 719 626 l 447 626 l 447 821 l 639 1063 l 782 1063 l 719 810 l 719 626 z "},"”":{"ha":824,"x_min":42,"x_max":754,"o":"m 104 1063 l 376 1063 l 376 868 l 185 626 l 42 626 l 104 879 l 104 1063 m 482 1063 l 754 1063 l 754 868 l 563 626 l 419 626 l 482 879 l 482 1063 z "},"‘":{"ha":446,"x_min":69,"x_max":404,"o":"m 342 626 l 69 626 l 69 821 l 261 1063 l 404 1063 l 342 810 l 342 626 z "},"’":{"ha":446,"x_min":42,"x_max":376,"o":"m 104 1063 l 376 1063 l 376 868 l 185 626 l 42 626 l 104 879 l 104 1063 z "},"«":{"ha":1006,"x_min":69,"x_max":908,"o":"m 306 144 l 69 381 l 69 592 l 306 828 l 450 828 l 450 564 l 344 564 l 267 486 l 344 408 l 450 408 l 450 144 l 306 144 m 764 144 l 528 367 l 528 592 l 764 828 l 908 828 l 908 564 l 803 564 l 725 486 l 803 408 l 908 408 l 908 144 l 764 144 z "},"»":{"ha":1006,"x_min":97,"x_max":936,"o":"m 700 144 l 556 144 l 556 408 l 661 408 l 739 486 l 661 564 l 556 564 l 556 828 l 700 828 l 936 592 l 936 381 l 700 144 m 242 144 l 97 144 l 97 408 l 203 408 l 281 486 l 203 564 l 97 564 l 97 828 l 242 828 l 478 592 l 478 367 l 242 144 z "},"‹":{"ha":547,"x_min":69,"x_max":450,"o":"m 306 144 l 69 381 l 69 592 l 306 828 l 450 828 l 450 564 l 344 564 l 267 486 l 344 408 l 450 408 l 450 144 l 306 144 z "},"›":{"ha":547,"x_min":97,"x_max":478,"o":"m 242 144 l 97 144 l 97 408 l 203 408 l 281 486 l 203 564 l 97 564 l 97 828 l 242 828 l 478 592 l 478 367 l 242 144 z "},"\"":{"ha":806,"x_min":69,"x_max":736,"o":"m 319 625 l 97 625 l 69 879 l 69 1063 l 347 1063 l 347 879 l 319 625 m 708 625 l 486 625 l 458 879 l 458 1063 l 736 1063 l 736 879 l 708 625 z "},"'":{"ha":417,"x_min":69,"x_max":347,"o":"m 319 625 l 97 625 l 69 879 l 69 1063 l 347 1063 l 347 879 l 319 625 z "}," ":{"ha":278,"x_min":0,"x_max":0,"o":""}," ":{"ha":278,"x_min":0,"x_max":0,"o":""},"\r":{"ha":0,"x_min":0,"x_max":0,"o":""},"¢":{"ha":875,"x_min":76,"x_max":813,"o":"m 563 -118 l 326 -118 l 326 0 l 228 0 l 76 151 l 76 613 l 228 764 l 326 764 l 326 882 l 563 882 l 563 764 l 661 764 l 813 613 l 813 431 l 554 431 l 554 522 l 340 522 l 340 242 l 554 242 l 554 333 l 813 333 l 813 151 l 661 0 l 563 0 l 563 -118 z "},"¤":{"ha":1001,"x_min":56,"x_max":946,"o":"m 828 297 l 946 179 l 779 13 l 661 131 l 340 131 l 222 13 l 56 179 l 174 297 l 174 619 l 56 738 l 222 904 l 340 786 l 661 786 l 779 904 l 946 738 l 828 619 l 828 297 m 403 564 l 403 353 l 599 353 l 599 564 l 403 564 z "},"$":{"ha":890,"x_min":69,"x_max":821,"o":"m 325 0 l 221 0 l 69 151 l 69 313 l 339 313 l 339 222 l 551 222 l 551 375 l 222 375 l 71 526 l 71 821 l 222 972 l 325 972 l 325 1090 l 561 1090 l 561 972 l 658 972 l 810 821 l 810 658 l 540 658 l 540 750 l 340 750 l 340 597 l 669 597 l 821 446 l 821 151 l 669 0 l 561 0 l 561 -118 l 325 -118 l 325 0 z "},"€":{"ha":981,"x_min":56,"x_max":918,"o":"m 160 293 l 56 293 l 56 446 l 160 446 l 160 529 l 56 529 l 56 682 l 160 682 l 160 821 l 311 972 l 767 972 l 918 821 l 918 589 l 654 589 l 654 750 l 424 750 l 424 682 l 572 682 l 572 529 l 424 529 l 424 446 l 572 446 l 572 293 l 424 293 l 424 222 l 654 222 l 654 383 l 918 383 l 918 151 l 767 0 l 311 0 l 160 151 l 160 293 z "},"ƒ":{"ha":808,"x_min":28,"x_max":781,"o":"m 285 -151 l 28 -151 l 28 57 l 192 57 l 303 569 l 188 569 l 188 736 l 339 736 l 372 890 l 524 1042 l 781 1042 l 781 833 l 617 833 l 596 736 l 731 736 l 731 569 l 560 569 l 436 0 l 285 -151 z "},"₺":{"ha":981,"x_min":83,"x_max":932,"o":"m 781 0 l 186 0 l 186 196 l 83 144 l 83 328 l 186 379 l 186 483 l 83 432 l 83 614 l 186 665 l 186 972 l 456 972 l 456 797 l 581 861 l 581 679 l 456 615 l 456 510 l 581 574 l 581 392 l 456 328 l 456 236 l 663 236 l 663 543 l 932 543 l 932 151 l 781 0 z "},"₽":{"ha":1018,"x_min":69,"x_max":949,"o":"m 174 131 l 69 131 l 69 283 l 174 283 l 174 367 l 69 367 l 69 519 l 174 519 l 174 972 l 797 972 l 949 821 l 949 518 l 797 367 l 446 367 l 446 283 l 661 283 l 661 131 l 446 131 l 446 0 l 174 0 l 174 131 m 446 519 l 646 519 l 676 550 l 676 764 l 446 764 l 446 519 z "},"₹":{"ha":908,"x_min":97,"x_max":811,"o":"m 211 319 l 97 319 l 97 472 l 243 472 l 340 569 l 97 569 l 97 722 l 326 722 l 229 819 l 97 819 l 97 972 l 811 972 l 811 819 l 524 819 l 621 722 l 811 722 l 811 569 l 635 569 l 472 407 l 811 67 l 811 0 l 531 0 l 211 319 z "},"£":{"ha":922,"x_min":69,"x_max":853,"o":"m 853 0 l 69 0 l 69 236 l 181 236 l 181 363 l 69 363 l 69 529 l 181 529 l 181 821 l 332 972 l 696 972 l 847 821 l 847 643 l 590 643 l 590 750 l 451 750 l 451 529 l 656 529 l 656 363 l 451 363 l 451 236 l 853 236 l 853 0 z "},"¥":{"ha":988,"x_min":97,"x_max":890,"o":"m 358 131 l 139 131 l 139 283 l 358 283 l 358 367 l 139 367 l 139 519 l 289 519 l 97 756 l 97 972 l 375 972 l 375 794 l 494 625 l 613 794 l 613 972 l 890 972 l 890 754 l 699 519 l 849 519 l 849 367 l 628 367 l 628 283 l 849 283 l 849 131 l 628 131 l 628 0 l 358 0 l 358 131 z "},"+":{"ha":917,"x_min":83,"x_max":833,"o":"m 83 361 l 83 597 l 333 597 l 333 854 l 583 854 l 583 597 l 833 597 l 833 361 l 583 361 l 583 104 l 333 104 l 333 361 l 83 361 z "},"−":{"ha":861,"x_min":83,"x_max":778,"o":"m 83 354 l 83 604 l 778 604 l 778 354 l 83 354 z "},"×":{"ha":932,"x_min":83,"x_max":849,"o":"m 257 106 l 90 272 l 292 474 l 83 681 l 261 858 l 468 651 l 675 858 l 842 692 l 640 490 l 849 283 l 671 106 l 464 313 l 257 106 z "},"÷":{"ha":917,"x_min":83,"x_max":833,"o":"m 340 906 l 576 906 l 576 685 l 340 685 l 340 906 m 83 354 l 83 604 l 833 604 l 833 354 l 83 354 m 340 274 l 576 274 l 576 53 l 340 53 l 340 274 z "},"=":{"ha":903,"x_min":111,"x_max":792,"o":"m 111 549 l 111 799 l 792 799 l 792 549 l 111 549 m 111 160 l 111 410 l 792 410 l 792 160 l 111 160 z "},"≠":{"ha":903,"x_min":111,"x_max":792,"o":"m 111 160 l 111 410 l 325 410 l 397 549 l 111 549 l 111 799 l 529 799 l 576 888 l 757 888 l 710 799 l 792 799 l 792 549 l 578 549 l 506 410 l 792 410 l 792 160 l 374 160 l 326 71 l 146 71 l 193 160 l 111 160 z "},">":{"ha":824,"x_min":125,"x_max":726,"o":"m 726 610 l 726 349 l 185 82 l 125 82 l 125 342 l 447 479 l 125 617 l 125 876 l 185 876 l 726 610 z "},"<":{"ha":824,"x_min":97,"x_max":699,"o":"m 639 82 l 97 349 l 97 610 l 639 876 l 699 876 l 699 617 l 376 479 l 699 342 l 699 82 l 639 82 z "},"≥":{"ha":908,"x_min":153,"x_max":769,"o":"m 768 756 l 768 467 l 213 297 l 153 297 l 153 535 l 481 611 l 153 688 l 153 925 l 213 925 l 768 756 m 769 40 l 153 40 l 153 269 l 769 269 l 769 40 z "},"≤":{"ha":908,"x_min":139,"x_max":756,"o":"m 696 297 l 140 467 l 140 756 l 696 925 l 756 925 l 756 688 l 428 611 l 756 535 l 756 297 l 696 297 m 756 269 l 756 40 l 139 40 l 139 269 l 756 269 z "},"±":{"ha":922,"x_min":139,"x_max":783,"o":"m 139 499 l 139 728 l 336 728 l 336 925 l 586 925 l 586 728 l 783 728 l 783 499 l 586 499 l 586 306 l 336 306 l 336 499 l 139 499 m 139 40 l 139 269 l 783 269 l 783 40 l 139 40 z "},"≈":{"ha":901,"x_min":111,"x_max":790,"o":"m 790 576 l 583 492 l 318 576 l 111 492 l 111 742 l 318 826 l 583 742 l 790 826 l 790 576 m 790 188 l 583 103 l 318 188 l 111 103 l 111 353 l 318 438 l 583 353 l 790 438 l 790 188 z "},"~":{"ha":846,"x_min":83,"x_max":763,"o":"m 763 401 l 556 317 l 290 401 l 83 317 l 83 567 l 290 651 l 556 567 l 763 651 l 763 401 z "},"¬":{"ha":861,"x_min":83,"x_max":778,"o":"m 83 446 l 83 696 l 778 696 l 778 243 l 528 243 l 528 446 l 83 446 z "},"^":{"ha":878,"x_min":42,"x_max":836,"o":"m 308 1063 l 569 1063 l 836 521 l 836 461 l 578 461 l 439 786 l 300 461 l 42 461 l 42 521 l 308 1063 z "},"∅":{"ha":931,"x_min":83,"x_max":847,"o":"m 847 557 l 847 151 l 696 0 l 290 0 l 233 58 l 175 0 l 83 0 l 83 92 l 142 150 l 83 207 l 83 613 l 235 764 l 640 764 l 699 707 l 756 764 l 847 764 l 847 672 l 790 615 l 847 557 m 556 564 l 297 564 l 297 306 l 556 564 m 375 200 l 633 200 l 633 458 l 375 200 z "},"∞":{"ha":1215,"x_min":83,"x_max":1132,"o":"m 981 139 l 786 139 l 644 282 l 501 139 l 235 139 l 83 290 l 83 681 l 235 832 l 429 832 l 572 690 l 714 832 l 981 832 l 1132 681 l 1132 290 l 981 139 m 306 389 l 492 389 l 514 411 l 343 582 l 306 582 l 306 389 m 910 582 l 724 582 l 701 560 l 872 389 l 910 389 l 910 582 z "},"∫":{"ha":667,"x_min":42,"x_max":625,"o":"m 317 -250 l 42 -250 l 42 0 l 199 0 l 199 918 l 350 1069 l 625 1069 l 625 819 l 468 819 l 468 -99 l 317 -250 z "},"Ω":{"ha":1078,"x_min":83,"x_max":994,"o":"m 419 0 l 83 0 l 83 250 l 251 250 l 251 289 l 89 451 l 89 821 l 240 972 l 838 972 l 989 821 l 989 451 l 826 289 l 826 250 l 994 250 l 994 0 l 658 0 l 590 68 l 590 326 l 711 447 l 711 722 l 367 722 l 367 447 l 488 326 l 488 68 l 419 0 z "},"∆":{"ha":1056,"x_min":97,"x_max":958,"o":"m 958 0 l 97 0 l 97 243 l 349 972 l 707 972 l 958 246 l 958 0 m 528 713 l 382 265 l 382 236 l 674 236 l 674 265 l 528 713 z "},"∏":{"ha":1111,"x_min":125,"x_max":986,"o":"m 394 -249 l 125 -249 l 125 1068 l 986 1068 l 986 -249 l 717 -249 l 717 818 l 394 818 l 394 -249 z "},"∑":{"ha":903,"x_min":83,"x_max":819,"o":"m 819 -246 l 83 -246 l 83 -10 l 504 411 l 83 832 l 83 1068 l 819 1068 l 819 832 l 425 832 l 749 508 l 749 314 l 424 -11 l 819 -11 l 819 -246 z "},"√":{"ha":1107,"x_min":56,"x_max":1051,"o":"m 738 0 l 428 0 l 235 358 l 56 358 l 56 622 l 386 622 l 563 288 l 790 1069 l 1051 1069 l 738 0 z "},"∂":{"ha":992,"x_min":69,"x_max":922,"o":"m 614 596 l 642 750 l 461 750 l 447 675 l 181 675 l 206 821 l 385 972 l 799 972 l 922 821 l 806 151 l 626 0 l 193 0 l 69 151 l 121 444 l 299 596 l 614 596 m 353 222 l 547 222 l 576 388 l 382 388 l 353 222 z "},"µ":{"ha":881,"x_min":76,"x_max":804,"o":"m 346 -264 l 76 -264 l 76 764 l 346 764 l 346 250 l 503 250 l 535 278 l 535 764 l 804 764 l 804 0 l 568 0 l 568 94 l 474 0 l 346 0 l 346 -264 z "},"%":{"ha":1578,"x_min":56,"x_max":1522,"o":"m 683 0 l 447 0 l 894 972 l 1131 972 l 683 0 m 506 367 l 158 367 l 56 469 l 56 869 l 158 972 l 506 972 l 608 869 l 608 469 l 506 367 m 278 797 l 278 542 l 386 542 l 386 797 l 278 797 m 1419 0 l 1072 0 l 969 103 l 969 503 l 1072 606 l 1419 606 l 1522 503 l 1522 103 l 1419 0 m 1192 431 l 1192 175 l 1300 175 l 1300 431 l 1192 431 z "},"‰":{"ha":2214,"x_min":56,"x_max":2158,"o":"m 683 0 l 447 0 l 894 972 l 1131 972 l 683 0 m 506 367 l 158 367 l 56 469 l 56 869 l 158 972 l 506 972 l 608 869 l 608 469 l 506 367 m 278 797 l 278 542 l 386 542 l 386 797 l 278 797 m 1419 0 l 1072 0 l 969 103 l 969 503 l 1072 606 l 1419 606 l 1522 503 l 1522 103 l 1419 0 m 2056 0 l 1708 0 l 1606 103 l 1606 503 l 1708 606 l 2056 606 l 2158 503 l 2158 103 l 2056 0 m 1192 431 l 1192 175 l 1300 175 l 1300 431 l 1192 431 m 1828 431 l 1828 175 l 1936 175 l 1936 431 l 1828 431 z "},"◊":{"ha":989,"x_min":69,"x_max":878,"o":"m 878 392 l 624 0 l 324 0 l 69 392 l 69 581 l 324 972 l 624 972 l 878 581 l 878 392 m 474 739 l 318 486 l 474 233 l 629 486 l 474 739 z "},"@":{"ha":1622,"x_min":111,"x_max":1511,"o":"m 1511 861 l 1511 151 l 1360 0 l 929 0 l 929 85 l 843 0 l 617 0 l 481 136 l 481 275 l 617 411 l 897 411 l 897 510 l 718 510 l 718 472 l 492 472 l 492 579 l 628 715 l 993 715 l 1131 579 l 1131 200 l 1275 200 l 1275 790 l 347 790 l 347 -75 l 885 -75 l 885 -297 l 263 -297 l 111 -146 l 111 861 l 263 1013 l 1360 1013 l 1511 861 m 897 294 l 713 294 l 713 185 l 868 185 l 897 207 l 897 294 z "},"&":{"ha":1083,"x_min":97,"x_max":1056,"o":"m 763 0 l 249 0 l 97 151 l 97 403 l 185 489 l 104 569 l 104 821 l 256 972 l 693 972 l 844 821 l 844 654 l 575 654 l 575 764 l 374 764 l 374 575 l 1056 575 l 1056 381 l 914 381 l 914 151 l 763 0 m 367 208 l 644 208 l 644 381 l 367 381 l 367 208 z "},"¶":{"ha":1149,"x_min":69,"x_max":1051,"o":"m 642 1014 l 642 -194 l 378 -194 l 378 292 l 221 292 l 69 443 l 69 863 l 221 1014 l 642 1014 m 1051 1014 l 1051 -194 l 788 -194 l 788 1014 l 1051 1014 z "},"§":{"ha":924,"x_min":97,"x_max":826,"o":"m 675 -194 l 260 -194 l 108 -43 l 108 78 l 372 78 l 372 14 l 557 14 l 557 149 l 249 149 l 97 300 l 97 863 l 249 1014 l 664 1014 l 815 863 l 815 742 l 551 742 l 551 806 l 367 806 l 367 671 l 675 671 l 826 519 l 826 -43 l 675 -194 m 367 476 l 367 343 l 557 343 l 557 476 l 367 476 z "},"©":{"ha":1099,"x_min":111,"x_max":988,"o":"m 856 61 l 243 61 l 111 193 l 111 779 l 243 911 l 856 911 l 988 779 l 988 193 l 856 61 m 264 772 l 264 200 l 835 200 l 835 772 l 264 772 m 660 267 l 442 267 l 374 335 l 374 636 l 442 704 l 660 704 l 728 636 l 728 532 l 603 532 l 603 592 l 499 592 l 499 379 l 603 379 l 603 439 l 728 439 l 728 335 l 660 267 z "},"®":{"ha":956,"x_min":83,"x_max":872,"o":"m 754 354 l 201 354 l 83 472 l 83 1000 l 201 1118 l 754 1118 l 872 1000 l 872 472 l 754 354 m 221 993 l 221 479 l 735 479 l 735 993 l 221 993 m 439 542 l 322 542 l 322 931 l 582 931 l 642 869 l 642 742 l 603 703 l 644 661 l 644 542 l 528 542 l 528 644 l 515 657 l 439 657 l 439 542 m 525 758 l 525 842 l 439 842 l 439 746 l 514 746 l 525 758 z "},"™":{"ha":1278,"x_min":56,"x_max":1194,"o":"m 56 865 l 56 1025 l 468 1025 l 468 865 l 353 865 l 353 490 l 172 490 l 172 865 l 56 865 m 690 490 l 518 490 l 518 1025 l 747 1025 l 857 885 l 965 1025 l 1194 1025 l 1194 490 l 1022 490 l 1022 724 q 1024 776 1022 747 q 1026 832 1025 804 l 1010 832 l 928 722 l 928 604 l 785 604 l 785 722 l 704 832 l 688 832 q 690 776 690 804 q 690 724 690 747 l 690 490 z "},"°":{"ha":781,"x_min":83,"x_max":697,"o":"m 574 531 l 207 531 l 83 654 l 83 939 l 207 1063 l 574 1063 l 697 939 l 697 654 l 574 531 m 292 893 l 292 700 l 490 700 l 490 893 l 292 893 z "},"|":{"ha":542,"x_min":139,"x_max":403,"o":"m 403 -319 l 139 -319 l 139 1069 l 403 1069 l 403 -319 z "},"¦":{"ha":542,"x_min":139,"x_max":403,"o":"m 403 1069 l 403 528 l 139 528 l 139 1069 l 403 1069 m 403 -319 l 139 -319 l 139 222 l 403 222 l 403 -319 z "},"†":{"ha":861,"x_min":69,"x_max":792,"o":"m 565 -194 l 296 -194 l 296 521 l 69 521 l 69 771 l 296 771 l 296 1014 l 565 1014 l 565 771 l 792 771 l 792 521 l 565 521 l 565 -194 z "},"ℓ":{"ha":799,"x_min":56,"x_max":693,"o":"m 542 0 l 288 0 l 136 151 l 136 238 l 56 186 l 56 365 l 136 418 l 136 890 l 288 1042 l 536 1042 l 688 890 l 688 593 l 406 411 l 406 194 l 515 194 l 515 292 l 693 292 l 693 151 l 542 0 m 510 847 l 406 847 l 406 592 l 510 660 l 510 847 z "},"‡":{"ha":889,"x_min":83,"x_max":806,"o":"m 83 49 l 83 285 l 310 285 l 310 535 l 83 535 l 83 771 l 310 771 l 310 1014 l 579 1014 l 579 771 l 806 771 l 806 535 l 579 535 l 579 285 l 806 285 l 806 49 l 579 49 l 579 -194 l 310 -194 l 310 49 l 83 49 z "},"℮":{"ha":1131,"x_min":97,"x_max":1033,"o":"m 1033 701 l 1033 467 l 410 467 l 410 119 l 771 119 l 953 301 l 1029 225 l 804 0 l 368 0 l 97 271 l 97 701 l 368 972 l 763 972 l 1033 701 m 721 853 l 410 853 l 410 586 l 721 586 l 721 853 z "},"ʼ":{"ha":694,"x_min":306,"x_max":540,"o":"m 540 1042 l 540 949 l 407 740 l 306 740 l 335 963 l 335 1042 l 540 1042 z "},"ʻ":{"ha":694,"x_min":233,"x_max":510,"o":"m 461 847 l 233 847 l 233 975 l 390 1129 l 510 1129 l 461 965 l 461 847 z "},"̈":{"ha":0,"x_min":-271,"x_max":271,"o":"m -271 1054 l -49 1054 l -49 847 l -271 847 l -271 1054 m 49 1054 l 271 1054 l 271 847 l 49 847 l 49 1054 z "},"̇":{"ha":0,"x_min":-118,"x_max":118,"o":"m -118 1068 l 118 1068 l 118 847 l -118 847 l -118 1068 z "},"̀":{"ha":0,"x_min":-222,"x_max":153,"o":"m -14 843 l -222 975 l -222 1068 l 63 1068 l 63 989 l 153 843 l -14 843 z "},"́":{"ha":0,"x_min":-153,"x_max":222,"o":"m 222 1068 l 222 975 l 14 843 l -153 843 l -62 989 l -62 1068 l 222 1068 z "},"̋":{"ha":0,"x_min":-243,"x_max":313,"o":"m 28 1068 l 28 975 l -104 843 l -243 843 l -187 989 l -187 1068 l 28 1068 m 313 1068 l 313 975 l 181 843 l 42 843 l 97 989 l 97 1068 l 313 1068 z "},"̂":{"ha":0,"x_min":-231,"x_max":231,"o":"m -25 899 l -231 810 l -231 907 l -50 1088 l 50 1088 l 231 907 l 231 810 l 25 899 l -25 899 z "},"̌":{"ha":0,"x_min":-231,"x_max":231,"o":"m 231 1004 l 50 824 l -50 824 l -231 1004 l -231 1101 l -25 1013 l 25 1013 l 231 1101 l 231 1004 z "},"̆":{"ha":0,"x_min":-240,"x_max":240,"o":"m -240 1065 l -69 1065 l -69 994 l 69 994 l 69 1065 l 240 1065 l 240 932 l 156 847 l -156 847 l -240 932 l -240 1065 z "},"̊":{"ha":0,"x_min":-221,"x_max":221,"o":"m -136 1158 l 136 1158 l 221 1074 l 221 932 l 136 847 l -136 847 l -221 932 l -221 1074 l -136 1158 m 68 953 l 68 1053 l -68 1053 l -68 953 l 68 953 z "},"̃":{"ha":0,"x_min":-246,"x_max":246,"o":"m -90 847 l -246 847 l -246 1001 l -175 1072 l -18 1072 l 68 986 l 90 986 l 90 1072 l 246 1072 l 246 918 l 175 847 l 18 847 l -68 933 l -90 933 l -90 847 z "},"̄":{"ha":0,"x_min":-214,"x_max":214,"o":"m -214 872 l -214 1033 l 214 1033 l 214 872 l -214 872 z "},"̓":{"ha":0,"x_min":-114,"x_max":163,"o":"m 114 847 l -114 847 l -114 975 l 43 1129 l 163 1129 l 114 965 l 114 847 z "},"̦":{"ha":0,"x_min":-165,"x_max":111,"o":"m -117 -83 l 111 -83 l 111 -211 l -46 -365 l -165 -365 l -117 -201 l -117 -83 z "},"̧":{"ha":0,"x_min":-140,"x_max":131,"o":"m 126 -244 l 56 -315 l -140 -315 l -140 -278 l -54 -192 l -54 -160 l -126 -87 l 19 58 l 131 58 l 28 -44 l 126 -143 l 126 -244 z "},"̨":{"ha":0,"x_min":-253,"x_max":0,"o":"m -135 0 l 0 0 l -86 -86 l -86 -158 l 0 -158 l 0 -332 l -182 -332 l -253 -261 l -253 -118 l -135 0 z "},"˙":{"ha":694,"x_min":229,"x_max":465,"o":"m 229 1068 l 465 1068 l 465 847 l 229 847 l 229 1068 z "},"¨":{"ha":694,"x_min":76,"x_max":618,"o":"m 76 1054 l 299 1054 l 299 847 l 76 847 l 76 1054 m 396 1054 l 618 1054 l 618 847 l 396 847 l 396 1054 z "},"`":{"ha":694,"x_min":125,"x_max":500,"o":"m 333 843 l 125 975 l 125 1068 l 410 1068 l 410 989 l 500 843 l 333 843 z "},"´":{"ha":694,"x_min":194,"x_max":569,"o":"m 569 1068 l 569 975 l 361 843 l 194 843 l 285 989 l 285 1068 l 569 1068 z "},"˝":{"ha":694,"x_min":104,"x_max":660,"o":"m 375 1068 l 375 975 l 243 843 l 104 843 l 160 989 l 160 1068 l 375 1068 m 660 1068 l 660 975 l 528 843 l 389 843 l 444 989 l 444 1068 l 660 1068 z "},"ˆ":{"ha":694,"x_min":117,"x_max":578,"o":"m 322 899 l 117 810 l 117 907 l 297 1088 l 397 1088 l 578 907 l 578 810 l 372 899 l 322 899 z "},"ˇ":{"ha":694,"x_min":117,"x_max":578,"o":"m 578 1004 l 397 824 l 297 824 l 117 1004 l 117 1101 l 322 1013 l 372 1013 l 578 1101 l 578 1004 z "},"˘":{"ha":694,"x_min":107,"x_max":588,"o":"m 107 1065 l 278 1065 l 278 994 l 417 994 l 417 1065 l 588 1065 l 588 932 l 503 847 l 192 847 l 107 932 l 107 1065 z "},"˚":{"ha":694,"x_min":126,"x_max":568,"o":"m 211 1158 l 483 1158 l 568 1074 l 568 932 l 483 847 l 211 847 l 126 932 l 126 1074 l 211 1158 m 415 953 l 415 1053 l 279 1053 l 279 953 l 415 953 z "},"˜":{"ha":694,"x_min":101,"x_max":593,"o":"m 257 847 l 101 847 l 101 1001 l 172 1072 l 329 1072 l 415 986 l 438 986 l 438 1072 l 593 1072 l 593 918 l 522 847 l 365 847 l 279 933 l 257 933 l 257 847 z "},"¯":{"ha":694,"x_min":133,"x_max":561,"o":"m 133 872 l 133 1033 l 561 1033 l 561 872 l 133 872 z "},"¸":{"ha":694,"x_min":207,"x_max":478,"o":"m 474 -244 l 403 -315 l 207 -315 l 207 -278 l 293 -192 l 293 -160 l 221 -87 l 367 58 l 478 58 l 375 -44 l 474 -143 l 474 -244 z "},"˛":{"ha":694,"x_min":94,"x_max":347,"o":"m 213 0 l 347 0 l 261 -86 l 261 -158 l 347 -158 l 347 -332 l 165 -332 l 94 -261 l 94 -118 l 213 0 z "}}}
